%FSLAX45Y45*%
G04 Gerber Fmt 4.5, Leading zero omitted, Abs format (unit mm)*
G04 Created by KiCad (PCBNEW (5.0.0)) date 01/02/19 23:42:11*
%MOMM*%
%LPD*%
G01*
G04 APERTURE LIST*
%ADD10C,0.200000*%
%ADD11C,0.300000*%
G04 APERTURE END LIST*
D10*
X12114049Y-8324049D02*
X12144529Y-8354529D01*
X12144529Y-8324049D02*
X12114049Y-8354529D01*
X12114049Y-8465471D02*
X12144529Y-8495951D01*
X12144529Y-8465471D02*
X12114049Y-8495951D01*
X12184760Y-8394760D02*
X12215240Y-8425240D01*
X12215240Y-8394760D02*
X12184760Y-8425240D01*
X12255471Y-8324049D02*
X12285951Y-8354529D01*
X12285951Y-8324049D02*
X12255471Y-8354529D01*
X12255471Y-8465471D02*
X12285951Y-8495951D01*
X12285951Y-8465471D02*
X12255471Y-8495951D01*
X10400000Y-7970000D02*
G75*
G03X10400000Y-7970000I-20000J0D01*
G01*
X10670000Y-7920000D02*
G75*
G03X10670000Y-7920000I-20000J0D01*
G01*
X11010000Y-8410000D02*
G75*
G03X11010000Y-8410000I-20000J0D01*
G01*
X11242500Y-8870000D02*
G75*
G03X11242500Y-8870000I-20000J0D01*
G01*
X11317500Y-8642500D02*
G75*
G03X11317500Y-8642500I-20000J0D01*
G01*
X11330000Y-7330000D02*
G75*
G03X11330000Y-7330000I-20000J0D01*
G01*
X11372500Y-8552500D02*
G75*
G03X11372500Y-8552500I-20000J0D01*
G01*
X11467013Y-8292987D02*
G75*
G03X11467013Y-8292987I-20000J0D01*
G01*
X11627500Y-8180000D02*
G75*
G03X11627500Y-8180000I-20000J0D01*
G01*
X11777500Y-8257500D02*
G75*
G03X11777500Y-8257500I-20000J0D01*
G01*
X11852500Y-7980000D02*
G75*
G03X11852500Y-7980000I-20000J0D01*
G01*
X11930000Y-8620000D02*
G75*
G03X11930000Y-8620000I-20000J0D01*
G01*
X11942500Y-8057500D02*
G75*
G03X11942500Y-8057500I-20000J0D01*
G01*
X12140000Y-7670000D02*
G75*
G03X12140000Y-7670000I-20000J0D01*
G01*
X12167500Y-7987500D02*
G75*
G03X12167500Y-7987500I-20000J0D01*
G01*
X12590000Y-8260000D02*
G75*
G03X12590000Y-8260000I-20000J0D01*
G01*
X12600000Y-8420000D02*
G75*
G03X12600000Y-8420000I-20000J0D01*
G01*
X12630000Y-7790000D02*
G75*
G03X12630000Y-7790000I-20000J0D01*
G01*
X12760000Y-7630000D02*
G75*
G03X12760000Y-7630000I-20000J0D01*
G01*
X12940000Y-7550000D02*
G75*
G03X12940000Y-7550000I-20000J0D01*
G01*
X12980000Y-8140000D02*
G75*
G03X12980000Y-8140000I-20000J0D01*
G01*
X13169658Y-8229724D02*
G75*
G03X13169658Y-8229724I-20000J0D01*
G01*
X13247500Y-8292500D02*
G75*
G03X13247500Y-8292500I-20000J0D01*
G01*
X14090000Y-7980000D02*
G75*
G03X14090000Y-7980000I-20000J0D01*
G01*
X14267500Y-8270000D02*
G75*
G03X14267500Y-8270000I-20000J0D01*
G01*
X12130000Y-6885000D02*
X12130000Y-6935000D01*
X12105000Y-6910000D02*
X12155000Y-6910000D01*
X12320000Y-6885000D02*
X12320000Y-6935000D01*
X12295000Y-6910000D02*
X12345000Y-6910000D01*
X12315650Y-8830650D02*
X12315650Y-8880650D01*
X12290650Y-8855650D02*
X12340650Y-8855650D01*
X12450000Y-8965000D02*
X12450000Y-9015000D01*
X12425000Y-8990000D02*
X12475000Y-8990000D01*
X11117553Y-9058053D02*
X11117553Y-9014947D01*
X11074447Y-9014947D01*
X11074447Y-9058053D01*
X11117553Y-9058053D01*
X11117553Y-9185053D02*
X11117553Y-9141947D01*
X11074447Y-9141947D01*
X11074447Y-9185053D01*
X11117553Y-9185053D01*
X11244553Y-9058053D02*
X11244553Y-9014947D01*
X11201447Y-9014947D01*
X11201447Y-9058053D01*
X11244553Y-9058053D01*
X11244553Y-9185053D02*
X11244553Y-9141947D01*
X11201447Y-9141947D01*
X11201447Y-9185053D01*
X11244553Y-9185053D01*
X11371553Y-9058053D02*
X11371553Y-9014947D01*
X11328447Y-9014947D01*
X11328447Y-9058053D01*
X11371553Y-9058053D01*
X11371553Y-9185053D02*
X11371553Y-9141947D01*
X11328447Y-9141947D01*
X11328447Y-9185053D01*
X11371553Y-9185053D01*
X11498553Y-9058053D02*
X11498553Y-9014947D01*
X11455447Y-9014947D01*
X11455447Y-9058053D01*
X11498553Y-9058053D01*
X11498553Y-9185053D02*
X11498553Y-9141947D01*
X11455447Y-9141947D01*
X11455447Y-9185053D01*
X11498553Y-9185053D01*
X11625553Y-9058053D02*
X11625553Y-9014947D01*
X11582447Y-9014947D01*
X11582447Y-9058053D01*
X11625553Y-9058053D01*
X11625553Y-9185053D02*
X11625553Y-9141947D01*
X11582447Y-9141947D01*
X11582447Y-9185053D01*
X11625553Y-9185053D01*
X10148000Y-8830500D02*
X10180500Y-8798000D01*
X10148000Y-8765500D01*
X10115500Y-8798000D01*
X10148000Y-8830500D01*
X10170500Y-8818000D02*
X10170500Y-8778000D01*
X10125500Y-8818000D02*
X10125500Y-8778000D01*
X10170500Y-8778000D02*
G75*
G03X10125500Y-8778000I-22500J0D01*
G01*
X10125500Y-8818000D02*
G75*
G03X10170500Y-8818000I22500J0D01*
G01*
X10632000Y-8830500D02*
X10664500Y-8798000D01*
X10632000Y-8765500D01*
X10599500Y-8798000D01*
X10632000Y-8830500D01*
X10654500Y-8818000D02*
X10654500Y-8778000D01*
X10609500Y-8818000D02*
X10609500Y-8778000D01*
X10654500Y-8778000D02*
G75*
G03X10609500Y-8778000I-22500J0D01*
G01*
X10609500Y-8818000D02*
G75*
G03X10654500Y-8818000I22500J0D01*
G01*
X10082000Y-9063000D02*
X10152000Y-9133000D01*
X10152000Y-9063000D02*
X10082000Y-9133000D01*
X10152000Y-9098000D02*
G75*
G03X10152000Y-9098000I-35000J0D01*
G01*
X10142000Y-9123000D02*
X10142000Y-9073000D01*
X10092000Y-9123000D02*
X10092000Y-9073000D01*
X10142000Y-9073000D02*
G75*
G03X10092000Y-9073000I-25000J0D01*
G01*
X10092000Y-9123000D02*
G75*
G03X10142000Y-9123000I25000J0D01*
G01*
X10628000Y-9063000D02*
X10698000Y-9133000D01*
X10698000Y-9063000D02*
X10628000Y-9133000D01*
X10698000Y-9098000D02*
G75*
G03X10698000Y-9098000I-35000J0D01*
G01*
X10688000Y-9123000D02*
X10688000Y-9073000D01*
X10638000Y-9123000D02*
X10638000Y-9073000D01*
X10688000Y-9073000D02*
G75*
G03X10638000Y-9073000I-25000J0D01*
G01*
X10638000Y-9123000D02*
G75*
G03X10688000Y-9123000I25000J0D01*
G01*
X10548000Y-6840000D02*
X10648000Y-6940000D01*
X10648000Y-6840000D02*
X10548000Y-6940000D01*
X10598000Y-6840000D02*
X10598000Y-6940000D01*
X10548000Y-6890000D02*
X10648000Y-6890000D01*
X10802000Y-6840000D02*
X10902000Y-6940000D01*
X10902000Y-6840000D02*
X10802000Y-6940000D01*
X10852000Y-6840000D02*
X10852000Y-6940000D01*
X10802000Y-6890000D02*
X10902000Y-6890000D01*
X11056000Y-6840000D02*
X11156000Y-6940000D01*
X11156000Y-6840000D02*
X11056000Y-6940000D01*
X11106000Y-6840000D02*
X11106000Y-6940000D01*
X11056000Y-6890000D02*
X11156000Y-6890000D01*
X11310000Y-6840000D02*
X11410000Y-6940000D01*
X11410000Y-6840000D02*
X11310000Y-6940000D01*
X11360000Y-6840000D02*
X11360000Y-6940000D01*
X11310000Y-6890000D02*
X11410000Y-6890000D01*
X12770000Y-9050000D02*
X12870000Y-9150000D01*
X12870000Y-9050000D02*
X12770000Y-9150000D01*
X12820000Y-9050000D02*
X12820000Y-9150000D01*
X12770000Y-9100000D02*
X12870000Y-9100000D01*
X13024000Y-9050000D02*
X13124000Y-9150000D01*
X13124000Y-9050000D02*
X13024000Y-9150000D01*
X13074000Y-9050000D02*
X13074000Y-9150000D01*
X13024000Y-9100000D02*
X13124000Y-9100000D01*
X13278000Y-9050000D02*
X13378000Y-9150000D01*
X13378000Y-9050000D02*
X13278000Y-9150000D01*
X13328000Y-9050000D02*
X13328000Y-9150000D01*
X13278000Y-9100000D02*
X13378000Y-9100000D01*
X13532000Y-9050000D02*
X13632000Y-9150000D01*
X13632000Y-9050000D02*
X13532000Y-9150000D01*
X13582000Y-9050000D02*
X13582000Y-9150000D01*
X13532000Y-9100000D02*
X13632000Y-9100000D01*
X13786000Y-9050000D02*
X13886000Y-9150000D01*
X13886000Y-9050000D02*
X13786000Y-9150000D01*
X13836000Y-9050000D02*
X13836000Y-9150000D01*
X13786000Y-9100000D02*
X13886000Y-9100000D01*
X14040000Y-9050000D02*
X14140000Y-9150000D01*
X14140000Y-9050000D02*
X14040000Y-9150000D01*
X14090000Y-9050000D02*
X14090000Y-9150000D01*
X14040000Y-9100000D02*
X14140000Y-9100000D01*
X14294000Y-9050000D02*
X14394000Y-9150000D01*
X14394000Y-9050000D02*
X14294000Y-9150000D01*
X14344000Y-9050000D02*
X14344000Y-9150000D01*
X14294000Y-9100000D02*
X14394000Y-9100000D01*
X14548000Y-9050000D02*
X14648000Y-9150000D01*
X14648000Y-9050000D02*
X14548000Y-9150000D01*
X14598000Y-9050000D02*
X14598000Y-9150000D01*
X14548000Y-9100000D02*
X14648000Y-9100000D01*
X14570000Y-7120000D02*
X14670000Y-7220000D01*
X14670000Y-7120000D02*
X14570000Y-7220000D01*
X14620000Y-7120000D02*
X14620000Y-7220000D01*
X14570000Y-7170000D02*
X14670000Y-7170000D01*
X14570000Y-7374000D02*
X14670000Y-7474000D01*
X14670000Y-7374000D02*
X14570000Y-7474000D01*
X14620000Y-7374000D02*
X14620000Y-7474000D01*
X14570000Y-7424000D02*
X14670000Y-7424000D01*
X14570000Y-7628000D02*
X14670000Y-7728000D01*
X14670000Y-7628000D02*
X14570000Y-7728000D01*
X14620000Y-7628000D02*
X14620000Y-7728000D01*
X14570000Y-7678000D02*
X14670000Y-7678000D01*
X14570000Y-7882000D02*
X14670000Y-7982000D01*
X14670000Y-7882000D02*
X14570000Y-7982000D01*
X14620000Y-7882000D02*
X14620000Y-7982000D01*
X14570000Y-7932000D02*
X14670000Y-7932000D01*
X14570000Y-8136000D02*
X14670000Y-8236000D01*
X14670000Y-8136000D02*
X14570000Y-8236000D01*
X14620000Y-8136000D02*
X14620000Y-8236000D01*
X14570000Y-8186000D02*
X14670000Y-8186000D01*
X14570000Y-8390000D02*
X14670000Y-8490000D01*
X14670000Y-8390000D02*
X14570000Y-8490000D01*
X14620000Y-8390000D02*
X14620000Y-8490000D01*
X14570000Y-8440000D02*
X14670000Y-8440000D01*
X14570000Y-8644000D02*
X14670000Y-8744000D01*
X14670000Y-8644000D02*
X14570000Y-8744000D01*
X14620000Y-8644000D02*
X14620000Y-8744000D01*
X14570000Y-8694000D02*
X14670000Y-8694000D01*
X13756000Y-7130000D02*
X13856000Y-7230000D01*
X13856000Y-7130000D02*
X13756000Y-7230000D01*
X13806000Y-7130000D02*
X13806000Y-7230000D01*
X13756000Y-7180000D02*
X13856000Y-7180000D01*
X14010000Y-7130000D02*
X14110000Y-7230000D01*
X14110000Y-7130000D02*
X14010000Y-7230000D01*
X14060000Y-7130000D02*
X14060000Y-7230000D01*
X14010000Y-7180000D02*
X14110000Y-7180000D01*
X10435000Y-7112500D02*
X10735000Y-7412500D01*
X10735000Y-7112500D02*
X10435000Y-7412500D01*
X10691067Y-7368567D02*
X10691067Y-7156433D01*
X10478933Y-7156433D01*
X10478933Y-7368567D01*
X10691067Y-7368567D01*
X14047500Y-8545000D02*
X14347500Y-8845000D01*
X14347500Y-8545000D02*
X14047500Y-8845000D01*
X14303567Y-8801067D02*
X14303567Y-8588933D01*
X14091433Y-8588933D01*
X14091433Y-8801067D01*
X14303567Y-8801067D01*
D11*
X286429Y-465714D02*
X286429Y-165714D01*
X357857Y-165714D01*
X400714Y-180000D01*
X429286Y-208571D01*
X443571Y-237143D01*
X457857Y-294286D01*
X457857Y-337143D01*
X443571Y-394286D01*
X429286Y-422857D01*
X400714Y-451428D01*
X357857Y-465714D01*
X286429Y-465714D01*
X586429Y-465714D02*
X586429Y-265714D01*
X586429Y-322857D02*
X600714Y-294286D01*
X615000Y-280000D01*
X643571Y-265714D01*
X672143Y-265714D01*
X772143Y-465714D02*
X772143Y-265714D01*
X772143Y-165714D02*
X757857Y-180000D01*
X772143Y-194286D01*
X786428Y-180000D01*
X772143Y-165714D01*
X772143Y-194286D01*
X957857Y-465714D02*
X929286Y-451428D01*
X915000Y-422857D01*
X915000Y-165714D01*
X1115000Y-465714D02*
X1086429Y-451428D01*
X1072143Y-422857D01*
X1072143Y-165714D01*
X1457857Y-465714D02*
X1457857Y-165714D01*
X1557857Y-380000D01*
X1657857Y-165714D01*
X1657857Y-465714D01*
X1929286Y-465714D02*
X1929286Y-308571D01*
X1915000Y-280000D01*
X1886428Y-265714D01*
X1829286Y-265714D01*
X1800714Y-280000D01*
X1929286Y-451428D02*
X1900714Y-465714D01*
X1829286Y-465714D01*
X1800714Y-451428D01*
X1786428Y-422857D01*
X1786428Y-394286D01*
X1800714Y-365714D01*
X1829286Y-351428D01*
X1900714Y-351428D01*
X1929286Y-337143D01*
X2072143Y-265714D02*
X2072143Y-565714D01*
X2072143Y-280000D02*
X2100714Y-265714D01*
X2157857Y-265714D01*
X2186429Y-280000D01*
X2200714Y-294286D01*
X2215000Y-322857D01*
X2215000Y-408571D01*
X2200714Y-437143D01*
X2186429Y-451428D01*
X2157857Y-465714D01*
X2100714Y-465714D01*
X2072143Y-451428D01*
X2343571Y-437143D02*
X2357857Y-451428D01*
X2343571Y-465714D01*
X2329286Y-451428D01*
X2343571Y-437143D01*
X2343571Y-465714D01*
X2343571Y-280000D02*
X2357857Y-294286D01*
X2343571Y-308571D01*
X2329286Y-294286D01*
X2343571Y-280000D01*
X2343571Y-308571D01*
X-30480Y-944760D02*
X0Y-975240D01*
X0Y-944760D02*
X-30480Y-975240D01*
X343571Y-795714D02*
X372143Y-795714D01*
X400714Y-810000D01*
X415000Y-824286D01*
X429286Y-852857D01*
X443571Y-910000D01*
X443571Y-981428D01*
X429286Y-1038571D01*
X415000Y-1067143D01*
X400714Y-1081429D01*
X372143Y-1095714D01*
X343571Y-1095714D01*
X315000Y-1081429D01*
X300714Y-1067143D01*
X286429Y-1038571D01*
X272143Y-981428D01*
X272143Y-910000D01*
X286429Y-852857D01*
X300714Y-824286D01*
X315000Y-810000D01*
X343571Y-795714D01*
X572143Y-1067143D02*
X586429Y-1081429D01*
X572143Y-1095714D01*
X557857Y-1081429D01*
X572143Y-1067143D01*
X572143Y-1095714D01*
X686429Y-795714D02*
X872143Y-795714D01*
X772143Y-910000D01*
X815000Y-910000D01*
X843571Y-924286D01*
X857857Y-938571D01*
X872143Y-967143D01*
X872143Y-1038571D01*
X857857Y-1067143D01*
X843571Y-1081429D01*
X815000Y-1095714D01*
X729286Y-1095714D01*
X700714Y-1081429D01*
X686429Y-1067143D01*
X1057857Y-795714D02*
X1086429Y-795714D01*
X1115000Y-810000D01*
X1129286Y-824286D01*
X1143571Y-852857D01*
X1157857Y-910000D01*
X1157857Y-981428D01*
X1143571Y-1038571D01*
X1129286Y-1067143D01*
X1115000Y-1081429D01*
X1086429Y-1095714D01*
X1057857Y-1095714D01*
X1029286Y-1081429D01*
X1015000Y-1067143D01*
X1000714Y-1038571D01*
X986428Y-981428D01*
X986428Y-910000D01*
X1000714Y-852857D01*
X1015000Y-824286D01*
X1029286Y-810000D01*
X1057857Y-795714D01*
X1286429Y-1095714D02*
X1286429Y-895714D01*
X1286429Y-924286D02*
X1300714Y-910000D01*
X1329286Y-895714D01*
X1372143Y-895714D01*
X1400714Y-910000D01*
X1415000Y-938571D01*
X1415000Y-1095714D01*
X1415000Y-938571D02*
X1429286Y-910000D01*
X1457857Y-895714D01*
X1500714Y-895714D01*
X1529286Y-910000D01*
X1543571Y-938571D01*
X1543571Y-1095714D01*
X1686428Y-1095714D02*
X1686428Y-895714D01*
X1686428Y-924286D02*
X1700714Y-910000D01*
X1729286Y-895714D01*
X1772143Y-895714D01*
X1800714Y-910000D01*
X1815000Y-938571D01*
X1815000Y-1095714D01*
X1815000Y-938571D02*
X1829286Y-910000D01*
X1857857Y-895714D01*
X1900714Y-895714D01*
X1929286Y-910000D01*
X1943571Y-938571D01*
X1943571Y-1095714D01*
X2529286Y-781428D02*
X2272143Y-1167143D01*
X2915000Y-795714D02*
X2943571Y-795714D01*
X2972143Y-810000D01*
X2986428Y-824286D01*
X3000714Y-852857D01*
X3015000Y-910000D01*
X3015000Y-981428D01*
X3000714Y-1038571D01*
X2986428Y-1067143D01*
X2972143Y-1081429D01*
X2943571Y-1095714D01*
X2915000Y-1095714D01*
X2886428Y-1081429D01*
X2872143Y-1067143D01*
X2857857Y-1038571D01*
X2843571Y-981428D01*
X2843571Y-910000D01*
X2857857Y-852857D01*
X2872143Y-824286D01*
X2886428Y-810000D01*
X2915000Y-795714D01*
X3143571Y-1067143D02*
X3157857Y-1081429D01*
X3143571Y-1095714D01*
X3129286Y-1081429D01*
X3143571Y-1067143D01*
X3143571Y-1095714D01*
X3343571Y-795714D02*
X3372143Y-795714D01*
X3400714Y-810000D01*
X3415000Y-824286D01*
X3429286Y-852857D01*
X3443571Y-910000D01*
X3443571Y-981428D01*
X3429286Y-1038571D01*
X3415000Y-1067143D01*
X3400714Y-1081429D01*
X3372143Y-1095714D01*
X3343571Y-1095714D01*
X3315000Y-1081429D01*
X3300714Y-1067143D01*
X3286428Y-1038571D01*
X3272143Y-981428D01*
X3272143Y-910000D01*
X3286428Y-852857D01*
X3300714Y-824286D01*
X3315000Y-810000D01*
X3343571Y-795714D01*
X3729286Y-1095714D02*
X3557857Y-1095714D01*
X3643571Y-1095714D02*
X3643571Y-795714D01*
X3615000Y-838571D01*
X3586428Y-867143D01*
X3557857Y-881428D01*
X3843571Y-824286D02*
X3857857Y-810000D01*
X3886428Y-795714D01*
X3957857Y-795714D01*
X3986428Y-810000D01*
X4000714Y-824286D01*
X4015000Y-852857D01*
X4015000Y-881428D01*
X4000714Y-924286D01*
X3829286Y-1095714D01*
X4015000Y-1095714D01*
X4129286Y-795714D02*
X4129286Y-852857D01*
X4243571Y-795714D02*
X4243571Y-852857D01*
X4686429Y-1210000D02*
X4672143Y-1195714D01*
X4643571Y-1152857D01*
X4629286Y-1124286D01*
X4615000Y-1081429D01*
X4600714Y-1010000D01*
X4600714Y-952857D01*
X4615000Y-881428D01*
X4629286Y-838571D01*
X4643571Y-810000D01*
X4672143Y-767143D01*
X4686429Y-752857D01*
X4943571Y-795714D02*
X4800714Y-795714D01*
X4786429Y-938571D01*
X4800714Y-924286D01*
X4829286Y-910000D01*
X4900714Y-910000D01*
X4929286Y-924286D01*
X4943571Y-938571D01*
X4957857Y-967143D01*
X4957857Y-1038571D01*
X4943571Y-1067143D01*
X4929286Y-1081429D01*
X4900714Y-1095714D01*
X4829286Y-1095714D01*
X4800714Y-1081429D01*
X4786429Y-1067143D01*
X5315000Y-1095714D02*
X5315000Y-795714D01*
X5443571Y-1095714D02*
X5443571Y-938571D01*
X5429286Y-910000D01*
X5400714Y-895714D01*
X5357857Y-895714D01*
X5329286Y-910000D01*
X5315000Y-924286D01*
X5629286Y-1095714D02*
X5600714Y-1081429D01*
X5586429Y-1067143D01*
X5572143Y-1038571D01*
X5572143Y-952857D01*
X5586429Y-924286D01*
X5600714Y-910000D01*
X5629286Y-895714D01*
X5672143Y-895714D01*
X5700714Y-910000D01*
X5715000Y-924286D01*
X5729286Y-952857D01*
X5729286Y-1038571D01*
X5715000Y-1067143D01*
X5700714Y-1081429D01*
X5672143Y-1095714D01*
X5629286Y-1095714D01*
X5900714Y-1095714D02*
X5872143Y-1081429D01*
X5857857Y-1052857D01*
X5857857Y-795714D01*
X6129286Y-1081429D02*
X6100714Y-1095714D01*
X6043571Y-1095714D01*
X6015000Y-1081429D01*
X6000714Y-1052857D01*
X6000714Y-938571D01*
X6015000Y-910000D01*
X6043571Y-895714D01*
X6100714Y-895714D01*
X6129286Y-910000D01*
X6143571Y-938571D01*
X6143571Y-967143D01*
X6000714Y-995714D01*
X6257857Y-1081429D02*
X6286428Y-1095714D01*
X6343571Y-1095714D01*
X6372143Y-1081429D01*
X6386428Y-1052857D01*
X6386428Y-1038571D01*
X6372143Y-1010000D01*
X6343571Y-995714D01*
X6300714Y-995714D01*
X6272143Y-981428D01*
X6257857Y-952857D01*
X6257857Y-938571D01*
X6272143Y-910000D01*
X6300714Y-895714D01*
X6343571Y-895714D01*
X6372143Y-910000D01*
X6486428Y-1210000D02*
X6500714Y-1195714D01*
X6529286Y-1152857D01*
X6543571Y-1124286D01*
X6557857Y-1081429D01*
X6572143Y-1010000D01*
X6572143Y-952857D01*
X6557857Y-881428D01*
X6543571Y-838571D01*
X6529286Y-810000D01*
X6500714Y-767143D01*
X6486428Y-752857D01*
X0Y-1356000D02*
G75*
G03X0Y-1356000I-20000J0D01*
G01*
X343571Y-1191714D02*
X372143Y-1191714D01*
X400714Y-1206000D01*
X415000Y-1220286D01*
X429286Y-1248857D01*
X443571Y-1306000D01*
X443571Y-1377429D01*
X429286Y-1434571D01*
X415000Y-1463143D01*
X400714Y-1477428D01*
X372143Y-1491714D01*
X343571Y-1491714D01*
X315000Y-1477428D01*
X300714Y-1463143D01*
X286429Y-1434571D01*
X272143Y-1377429D01*
X272143Y-1306000D01*
X286429Y-1248857D01*
X300714Y-1220286D01*
X315000Y-1206000D01*
X343571Y-1191714D01*
X572143Y-1463143D02*
X586429Y-1477428D01*
X572143Y-1491714D01*
X557857Y-1477428D01*
X572143Y-1463143D01*
X572143Y-1491714D01*
X843571Y-1291714D02*
X843571Y-1491714D01*
X772143Y-1177429D02*
X700714Y-1391714D01*
X886428Y-1391714D01*
X1057857Y-1191714D02*
X1086429Y-1191714D01*
X1115000Y-1206000D01*
X1129286Y-1220286D01*
X1143571Y-1248857D01*
X1157857Y-1306000D01*
X1157857Y-1377429D01*
X1143571Y-1434571D01*
X1129286Y-1463143D01*
X1115000Y-1477428D01*
X1086429Y-1491714D01*
X1057857Y-1491714D01*
X1029286Y-1477428D01*
X1015000Y-1463143D01*
X1000714Y-1434571D01*
X986428Y-1377429D01*
X986428Y-1306000D01*
X1000714Y-1248857D01*
X1015000Y-1220286D01*
X1029286Y-1206000D01*
X1057857Y-1191714D01*
X1286429Y-1491714D02*
X1286429Y-1291714D01*
X1286429Y-1320286D02*
X1300714Y-1306000D01*
X1329286Y-1291714D01*
X1372143Y-1291714D01*
X1400714Y-1306000D01*
X1415000Y-1334571D01*
X1415000Y-1491714D01*
X1415000Y-1334571D02*
X1429286Y-1306000D01*
X1457857Y-1291714D01*
X1500714Y-1291714D01*
X1529286Y-1306000D01*
X1543571Y-1334571D01*
X1543571Y-1491714D01*
X1686428Y-1491714D02*
X1686428Y-1291714D01*
X1686428Y-1320286D02*
X1700714Y-1306000D01*
X1729286Y-1291714D01*
X1772143Y-1291714D01*
X1800714Y-1306000D01*
X1815000Y-1334571D01*
X1815000Y-1491714D01*
X1815000Y-1334571D02*
X1829286Y-1306000D01*
X1857857Y-1291714D01*
X1900714Y-1291714D01*
X1929286Y-1306000D01*
X1943571Y-1334571D01*
X1943571Y-1491714D01*
X2529286Y-1177429D02*
X2272143Y-1563143D01*
X2915000Y-1191714D02*
X2943571Y-1191714D01*
X2972143Y-1206000D01*
X2986428Y-1220286D01*
X3000714Y-1248857D01*
X3015000Y-1306000D01*
X3015000Y-1377429D01*
X3000714Y-1434571D01*
X2986428Y-1463143D01*
X2972143Y-1477428D01*
X2943571Y-1491714D01*
X2915000Y-1491714D01*
X2886428Y-1477428D01*
X2872143Y-1463143D01*
X2857857Y-1434571D01*
X2843571Y-1377429D01*
X2843571Y-1306000D01*
X2857857Y-1248857D01*
X2872143Y-1220286D01*
X2886428Y-1206000D01*
X2915000Y-1191714D01*
X3143571Y-1463143D02*
X3157857Y-1477428D01*
X3143571Y-1491714D01*
X3129286Y-1477428D01*
X3143571Y-1463143D01*
X3143571Y-1491714D01*
X3343571Y-1191714D02*
X3372143Y-1191714D01*
X3400714Y-1206000D01*
X3415000Y-1220286D01*
X3429286Y-1248857D01*
X3443571Y-1306000D01*
X3443571Y-1377429D01*
X3429286Y-1434571D01*
X3415000Y-1463143D01*
X3400714Y-1477428D01*
X3372143Y-1491714D01*
X3343571Y-1491714D01*
X3315000Y-1477428D01*
X3300714Y-1463143D01*
X3286428Y-1434571D01*
X3272143Y-1377429D01*
X3272143Y-1306000D01*
X3286428Y-1248857D01*
X3300714Y-1220286D01*
X3315000Y-1206000D01*
X3343571Y-1191714D01*
X3729286Y-1491714D02*
X3557857Y-1491714D01*
X3643571Y-1491714D02*
X3643571Y-1191714D01*
X3615000Y-1234571D01*
X3586428Y-1263143D01*
X3557857Y-1277429D01*
X3986428Y-1191714D02*
X3929286Y-1191714D01*
X3900714Y-1206000D01*
X3886428Y-1220286D01*
X3857857Y-1263143D01*
X3843571Y-1320286D01*
X3843571Y-1434571D01*
X3857857Y-1463143D01*
X3872143Y-1477428D01*
X3900714Y-1491714D01*
X3957857Y-1491714D01*
X3986428Y-1477428D01*
X4000714Y-1463143D01*
X4015000Y-1434571D01*
X4015000Y-1363143D01*
X4000714Y-1334571D01*
X3986428Y-1320286D01*
X3957857Y-1306000D01*
X3900714Y-1306000D01*
X3872143Y-1320286D01*
X3857857Y-1334571D01*
X3843571Y-1363143D01*
X4129286Y-1191714D02*
X4129286Y-1248857D01*
X4243571Y-1191714D02*
X4243571Y-1248857D01*
X4686429Y-1606000D02*
X4672143Y-1591714D01*
X4643571Y-1548857D01*
X4629286Y-1520286D01*
X4615000Y-1477428D01*
X4600714Y-1406000D01*
X4600714Y-1348857D01*
X4615000Y-1277429D01*
X4629286Y-1234571D01*
X4643571Y-1206000D01*
X4672143Y-1163143D01*
X4686429Y-1148857D01*
X4786429Y-1220286D02*
X4800714Y-1206000D01*
X4829286Y-1191714D01*
X4900714Y-1191714D01*
X4929286Y-1206000D01*
X4943571Y-1220286D01*
X4957857Y-1248857D01*
X4957857Y-1277429D01*
X4943571Y-1320286D01*
X4772143Y-1491714D01*
X4957857Y-1491714D01*
X5229286Y-1191714D02*
X5086429Y-1191714D01*
X5072143Y-1334571D01*
X5086429Y-1320286D01*
X5115000Y-1306000D01*
X5186429Y-1306000D01*
X5215000Y-1320286D01*
X5229286Y-1334571D01*
X5243571Y-1363143D01*
X5243571Y-1434571D01*
X5229286Y-1463143D01*
X5215000Y-1477428D01*
X5186429Y-1491714D01*
X5115000Y-1491714D01*
X5086429Y-1477428D01*
X5072143Y-1463143D01*
X5600714Y-1491714D02*
X5600714Y-1191714D01*
X5729286Y-1491714D02*
X5729286Y-1334571D01*
X5715000Y-1306000D01*
X5686428Y-1291714D01*
X5643571Y-1291714D01*
X5615000Y-1306000D01*
X5600714Y-1320286D01*
X5915000Y-1491714D02*
X5886428Y-1477428D01*
X5872143Y-1463143D01*
X5857857Y-1434571D01*
X5857857Y-1348857D01*
X5872143Y-1320286D01*
X5886428Y-1306000D01*
X5915000Y-1291714D01*
X5957857Y-1291714D01*
X5986428Y-1306000D01*
X6000714Y-1320286D01*
X6015000Y-1348857D01*
X6015000Y-1434571D01*
X6000714Y-1463143D01*
X5986428Y-1477428D01*
X5957857Y-1491714D01*
X5915000Y-1491714D01*
X6186428Y-1491714D02*
X6157857Y-1477428D01*
X6143571Y-1448857D01*
X6143571Y-1191714D01*
X6415000Y-1477428D02*
X6386428Y-1491714D01*
X6329286Y-1491714D01*
X6300714Y-1477428D01*
X6286428Y-1448857D01*
X6286428Y-1334571D01*
X6300714Y-1306000D01*
X6329286Y-1291714D01*
X6386428Y-1291714D01*
X6415000Y-1306000D01*
X6429286Y-1334571D01*
X6429286Y-1363143D01*
X6286428Y-1391714D01*
X6543571Y-1477428D02*
X6572143Y-1491714D01*
X6629286Y-1491714D01*
X6657857Y-1477428D01*
X6672143Y-1448857D01*
X6672143Y-1434571D01*
X6657857Y-1406000D01*
X6629286Y-1391714D01*
X6586428Y-1391714D01*
X6557857Y-1377429D01*
X6543571Y-1348857D01*
X6543571Y-1334571D01*
X6557857Y-1306000D01*
X6586428Y-1291714D01*
X6629286Y-1291714D01*
X6657857Y-1306000D01*
X6772143Y-1606000D02*
X6786428Y-1591714D01*
X6815000Y-1548857D01*
X6829286Y-1520286D01*
X6843571Y-1477428D01*
X6857857Y-1406000D01*
X6857857Y-1348857D01*
X6843571Y-1277429D01*
X6829286Y-1234571D01*
X6815000Y-1206000D01*
X6786428Y-1163143D01*
X6772143Y-1148857D01*
X-25000Y-1727000D02*
X-25000Y-1777000D01*
X-50000Y-1752000D02*
X0Y-1752000D01*
X343571Y-1587714D02*
X372143Y-1587714D01*
X400714Y-1602000D01*
X415000Y-1616286D01*
X429286Y-1644857D01*
X443571Y-1702000D01*
X443571Y-1773428D01*
X429286Y-1830571D01*
X415000Y-1859143D01*
X400714Y-1873428D01*
X372143Y-1887714D01*
X343571Y-1887714D01*
X315000Y-1873428D01*
X300714Y-1859143D01*
X286429Y-1830571D01*
X272143Y-1773428D01*
X272143Y-1702000D01*
X286429Y-1644857D01*
X300714Y-1616286D01*
X315000Y-1602000D01*
X343571Y-1587714D01*
X572143Y-1859143D02*
X586429Y-1873428D01*
X572143Y-1887714D01*
X557857Y-1873428D01*
X572143Y-1859143D01*
X572143Y-1887714D01*
X857857Y-1587714D02*
X715000Y-1587714D01*
X700714Y-1730571D01*
X715000Y-1716286D01*
X743571Y-1702000D01*
X815000Y-1702000D01*
X843571Y-1716286D01*
X857857Y-1730571D01*
X872143Y-1759143D01*
X872143Y-1830571D01*
X857857Y-1859143D01*
X843571Y-1873428D01*
X815000Y-1887714D01*
X743571Y-1887714D01*
X715000Y-1873428D01*
X700714Y-1859143D01*
X1057857Y-1587714D02*
X1086429Y-1587714D01*
X1115000Y-1602000D01*
X1129286Y-1616286D01*
X1143571Y-1644857D01*
X1157857Y-1702000D01*
X1157857Y-1773428D01*
X1143571Y-1830571D01*
X1129286Y-1859143D01*
X1115000Y-1873428D01*
X1086429Y-1887714D01*
X1057857Y-1887714D01*
X1029286Y-1873428D01*
X1015000Y-1859143D01*
X1000714Y-1830571D01*
X986428Y-1773428D01*
X986428Y-1702000D01*
X1000714Y-1644857D01*
X1015000Y-1616286D01*
X1029286Y-1602000D01*
X1057857Y-1587714D01*
X1286429Y-1887714D02*
X1286429Y-1687714D01*
X1286429Y-1716286D02*
X1300714Y-1702000D01*
X1329286Y-1687714D01*
X1372143Y-1687714D01*
X1400714Y-1702000D01*
X1415000Y-1730571D01*
X1415000Y-1887714D01*
X1415000Y-1730571D02*
X1429286Y-1702000D01*
X1457857Y-1687714D01*
X1500714Y-1687714D01*
X1529286Y-1702000D01*
X1543571Y-1730571D01*
X1543571Y-1887714D01*
X1686428Y-1887714D02*
X1686428Y-1687714D01*
X1686428Y-1716286D02*
X1700714Y-1702000D01*
X1729286Y-1687714D01*
X1772143Y-1687714D01*
X1800714Y-1702000D01*
X1815000Y-1730571D01*
X1815000Y-1887714D01*
X1815000Y-1730571D02*
X1829286Y-1702000D01*
X1857857Y-1687714D01*
X1900714Y-1687714D01*
X1929286Y-1702000D01*
X1943571Y-1730571D01*
X1943571Y-1887714D01*
X2529286Y-1573428D02*
X2272143Y-1959143D01*
X2915000Y-1587714D02*
X2943571Y-1587714D01*
X2972143Y-1602000D01*
X2986428Y-1616286D01*
X3000714Y-1644857D01*
X3015000Y-1702000D01*
X3015000Y-1773428D01*
X3000714Y-1830571D01*
X2986428Y-1859143D01*
X2972143Y-1873428D01*
X2943571Y-1887714D01*
X2915000Y-1887714D01*
X2886428Y-1873428D01*
X2872143Y-1859143D01*
X2857857Y-1830571D01*
X2843571Y-1773428D01*
X2843571Y-1702000D01*
X2857857Y-1644857D01*
X2872143Y-1616286D01*
X2886428Y-1602000D01*
X2915000Y-1587714D01*
X3143571Y-1859143D02*
X3157857Y-1873428D01*
X3143571Y-1887714D01*
X3129286Y-1873428D01*
X3143571Y-1859143D01*
X3143571Y-1887714D01*
X3343571Y-1587714D02*
X3372143Y-1587714D01*
X3400714Y-1602000D01*
X3415000Y-1616286D01*
X3429286Y-1644857D01*
X3443571Y-1702000D01*
X3443571Y-1773428D01*
X3429286Y-1830571D01*
X3415000Y-1859143D01*
X3400714Y-1873428D01*
X3372143Y-1887714D01*
X3343571Y-1887714D01*
X3315000Y-1873428D01*
X3300714Y-1859143D01*
X3286428Y-1830571D01*
X3272143Y-1773428D01*
X3272143Y-1702000D01*
X3286428Y-1644857D01*
X3300714Y-1616286D01*
X3315000Y-1602000D01*
X3343571Y-1587714D01*
X3557857Y-1616286D02*
X3572143Y-1602000D01*
X3600714Y-1587714D01*
X3672143Y-1587714D01*
X3700714Y-1602000D01*
X3715000Y-1616286D01*
X3729286Y-1644857D01*
X3729286Y-1673428D01*
X3715000Y-1716286D01*
X3543571Y-1887714D01*
X3729286Y-1887714D01*
X3915000Y-1587714D02*
X3943571Y-1587714D01*
X3972143Y-1602000D01*
X3986428Y-1616286D01*
X4000714Y-1644857D01*
X4015000Y-1702000D01*
X4015000Y-1773428D01*
X4000714Y-1830571D01*
X3986428Y-1859143D01*
X3972143Y-1873428D01*
X3943571Y-1887714D01*
X3915000Y-1887714D01*
X3886428Y-1873428D01*
X3872143Y-1859143D01*
X3857857Y-1830571D01*
X3843571Y-1773428D01*
X3843571Y-1702000D01*
X3857857Y-1644857D01*
X3872143Y-1616286D01*
X3886428Y-1602000D01*
X3915000Y-1587714D01*
X4129286Y-1587714D02*
X4129286Y-1644857D01*
X4243571Y-1587714D02*
X4243571Y-1644857D01*
X4686429Y-2002000D02*
X4672143Y-1987714D01*
X4643571Y-1944857D01*
X4629286Y-1916286D01*
X4615000Y-1873428D01*
X4600714Y-1802000D01*
X4600714Y-1744857D01*
X4615000Y-1673428D01*
X4629286Y-1630571D01*
X4643571Y-1602000D01*
X4672143Y-1559143D01*
X4686429Y-1544857D01*
X4929286Y-1687714D02*
X4929286Y-1887714D01*
X4857857Y-1573428D02*
X4786429Y-1787714D01*
X4972143Y-1787714D01*
X5315000Y-1887714D02*
X5315000Y-1587714D01*
X5443571Y-1887714D02*
X5443571Y-1730571D01*
X5429286Y-1702000D01*
X5400714Y-1687714D01*
X5357857Y-1687714D01*
X5329286Y-1702000D01*
X5315000Y-1716286D01*
X5629286Y-1887714D02*
X5600714Y-1873428D01*
X5586429Y-1859143D01*
X5572143Y-1830571D01*
X5572143Y-1744857D01*
X5586429Y-1716286D01*
X5600714Y-1702000D01*
X5629286Y-1687714D01*
X5672143Y-1687714D01*
X5700714Y-1702000D01*
X5715000Y-1716286D01*
X5729286Y-1744857D01*
X5729286Y-1830571D01*
X5715000Y-1859143D01*
X5700714Y-1873428D01*
X5672143Y-1887714D01*
X5629286Y-1887714D01*
X5900714Y-1887714D02*
X5872143Y-1873428D01*
X5857857Y-1844857D01*
X5857857Y-1587714D01*
X6129286Y-1873428D02*
X6100714Y-1887714D01*
X6043571Y-1887714D01*
X6015000Y-1873428D01*
X6000714Y-1844857D01*
X6000714Y-1730571D01*
X6015000Y-1702000D01*
X6043571Y-1687714D01*
X6100714Y-1687714D01*
X6129286Y-1702000D01*
X6143571Y-1730571D01*
X6143571Y-1759143D01*
X6000714Y-1787714D01*
X6257857Y-1873428D02*
X6286428Y-1887714D01*
X6343571Y-1887714D01*
X6372143Y-1873428D01*
X6386428Y-1844857D01*
X6386428Y-1830571D01*
X6372143Y-1802000D01*
X6343571Y-1787714D01*
X6300714Y-1787714D01*
X6272143Y-1773428D01*
X6257857Y-1744857D01*
X6257857Y-1730571D01*
X6272143Y-1702000D01*
X6300714Y-1687714D01*
X6343571Y-1687714D01*
X6372143Y-1702000D01*
X6486428Y-2002000D02*
X6500714Y-1987714D01*
X6529286Y-1944857D01*
X6543571Y-1916286D01*
X6557857Y-1873428D01*
X6572143Y-1802000D01*
X6572143Y-1744857D01*
X6557857Y-1673428D01*
X6543571Y-1630571D01*
X6529286Y-1602000D01*
X6500714Y-1559143D01*
X6486428Y-1544857D01*
X-8927Y-2169553D02*
X-8927Y-2126447D01*
X-52033Y-2126447D01*
X-52033Y-2169553D01*
X-8927Y-2169553D01*
X343571Y-1983714D02*
X372143Y-1983714D01*
X400714Y-1998000D01*
X415000Y-2012286D01*
X429286Y-2040857D01*
X443571Y-2098000D01*
X443571Y-2169429D01*
X429286Y-2226571D01*
X415000Y-2255143D01*
X400714Y-2269429D01*
X372143Y-2283714D01*
X343571Y-2283714D01*
X315000Y-2269429D01*
X300714Y-2255143D01*
X286429Y-2226571D01*
X272143Y-2169429D01*
X272143Y-2098000D01*
X286429Y-2040857D01*
X300714Y-2012286D01*
X315000Y-1998000D01*
X343571Y-1983714D01*
X572143Y-2255143D02*
X586429Y-2269429D01*
X572143Y-2283714D01*
X557857Y-2269429D01*
X572143Y-2255143D01*
X572143Y-2283714D01*
X843571Y-1983714D02*
X786428Y-1983714D01*
X757857Y-1998000D01*
X743571Y-2012286D01*
X715000Y-2055143D01*
X700714Y-2112286D01*
X700714Y-2226571D01*
X715000Y-2255143D01*
X729286Y-2269429D01*
X757857Y-2283714D01*
X815000Y-2283714D01*
X843571Y-2269429D01*
X857857Y-2255143D01*
X872143Y-2226571D01*
X872143Y-2155143D01*
X857857Y-2126571D01*
X843571Y-2112286D01*
X815000Y-2098000D01*
X757857Y-2098000D01*
X729286Y-2112286D01*
X715000Y-2126571D01*
X700714Y-2155143D01*
X1157857Y-2283714D02*
X986428Y-2283714D01*
X1072143Y-2283714D02*
X1072143Y-1983714D01*
X1043571Y-2026571D01*
X1015000Y-2055143D01*
X986428Y-2069428D01*
X1286429Y-2283714D02*
X1286429Y-2083714D01*
X1286429Y-2112286D02*
X1300714Y-2098000D01*
X1329286Y-2083714D01*
X1372143Y-2083714D01*
X1400714Y-2098000D01*
X1415000Y-2126571D01*
X1415000Y-2283714D01*
X1415000Y-2126571D02*
X1429286Y-2098000D01*
X1457857Y-2083714D01*
X1500714Y-2083714D01*
X1529286Y-2098000D01*
X1543571Y-2126571D01*
X1543571Y-2283714D01*
X1686428Y-2283714D02*
X1686428Y-2083714D01*
X1686428Y-2112286D02*
X1700714Y-2098000D01*
X1729286Y-2083714D01*
X1772143Y-2083714D01*
X1800714Y-2098000D01*
X1815000Y-2126571D01*
X1815000Y-2283714D01*
X1815000Y-2126571D02*
X1829286Y-2098000D01*
X1857857Y-2083714D01*
X1900714Y-2083714D01*
X1929286Y-2098000D01*
X1943571Y-2126571D01*
X1943571Y-2283714D01*
X2529286Y-1969428D02*
X2272143Y-2355143D01*
X2915000Y-1983714D02*
X2943571Y-1983714D01*
X2972143Y-1998000D01*
X2986428Y-2012286D01*
X3000714Y-2040857D01*
X3015000Y-2098000D01*
X3015000Y-2169429D01*
X3000714Y-2226571D01*
X2986428Y-2255143D01*
X2972143Y-2269429D01*
X2943571Y-2283714D01*
X2915000Y-2283714D01*
X2886428Y-2269429D01*
X2872143Y-2255143D01*
X2857857Y-2226571D01*
X2843571Y-2169429D01*
X2843571Y-2098000D01*
X2857857Y-2040857D01*
X2872143Y-2012286D01*
X2886428Y-1998000D01*
X2915000Y-1983714D01*
X3143571Y-2255143D02*
X3157857Y-2269429D01*
X3143571Y-2283714D01*
X3129286Y-2269429D01*
X3143571Y-2255143D01*
X3143571Y-2283714D01*
X3343571Y-1983714D02*
X3372143Y-1983714D01*
X3400714Y-1998000D01*
X3415000Y-2012286D01*
X3429286Y-2040857D01*
X3443571Y-2098000D01*
X3443571Y-2169429D01*
X3429286Y-2226571D01*
X3415000Y-2255143D01*
X3400714Y-2269429D01*
X3372143Y-2283714D01*
X3343571Y-2283714D01*
X3315000Y-2269429D01*
X3300714Y-2255143D01*
X3286428Y-2226571D01*
X3272143Y-2169429D01*
X3272143Y-2098000D01*
X3286428Y-2040857D01*
X3300714Y-2012286D01*
X3315000Y-1998000D01*
X3343571Y-1983714D01*
X3557857Y-2012286D02*
X3572143Y-1998000D01*
X3600714Y-1983714D01*
X3672143Y-1983714D01*
X3700714Y-1998000D01*
X3715000Y-2012286D01*
X3729286Y-2040857D01*
X3729286Y-2069428D01*
X3715000Y-2112286D01*
X3543571Y-2283714D01*
X3729286Y-2283714D01*
X3986428Y-2083714D02*
X3986428Y-2283714D01*
X3915000Y-1969428D02*
X3843571Y-2183714D01*
X4029286Y-2183714D01*
X4129286Y-1983714D02*
X4129286Y-2040857D01*
X4243571Y-1983714D02*
X4243571Y-2040857D01*
X4686429Y-2398000D02*
X4672143Y-2383714D01*
X4643571Y-2340857D01*
X4629286Y-2312286D01*
X4615000Y-2269429D01*
X4600714Y-2198000D01*
X4600714Y-2140857D01*
X4615000Y-2069428D01*
X4629286Y-2026571D01*
X4643571Y-1998000D01*
X4672143Y-1955143D01*
X4686429Y-1940857D01*
X4957857Y-2283714D02*
X4786429Y-2283714D01*
X4872143Y-2283714D02*
X4872143Y-1983714D01*
X4843571Y-2026571D01*
X4815000Y-2055143D01*
X4786429Y-2069428D01*
X5143571Y-1983714D02*
X5172143Y-1983714D01*
X5200714Y-1998000D01*
X5215000Y-2012286D01*
X5229286Y-2040857D01*
X5243571Y-2098000D01*
X5243571Y-2169429D01*
X5229286Y-2226571D01*
X5215000Y-2255143D01*
X5200714Y-2269429D01*
X5172143Y-2283714D01*
X5143571Y-2283714D01*
X5115000Y-2269429D01*
X5100714Y-2255143D01*
X5086429Y-2226571D01*
X5072143Y-2169429D01*
X5072143Y-2098000D01*
X5086429Y-2040857D01*
X5100714Y-2012286D01*
X5115000Y-1998000D01*
X5143571Y-1983714D01*
X5600714Y-2283714D02*
X5600714Y-1983714D01*
X5729286Y-2283714D02*
X5729286Y-2126571D01*
X5715000Y-2098000D01*
X5686428Y-2083714D01*
X5643571Y-2083714D01*
X5615000Y-2098000D01*
X5600714Y-2112286D01*
X5915000Y-2283714D02*
X5886428Y-2269429D01*
X5872143Y-2255143D01*
X5857857Y-2226571D01*
X5857857Y-2140857D01*
X5872143Y-2112286D01*
X5886428Y-2098000D01*
X5915000Y-2083714D01*
X5957857Y-2083714D01*
X5986428Y-2098000D01*
X6000714Y-2112286D01*
X6015000Y-2140857D01*
X6015000Y-2226571D01*
X6000714Y-2255143D01*
X5986428Y-2269429D01*
X5957857Y-2283714D01*
X5915000Y-2283714D01*
X6186428Y-2283714D02*
X6157857Y-2269429D01*
X6143571Y-2240857D01*
X6143571Y-1983714D01*
X6415000Y-2269429D02*
X6386428Y-2283714D01*
X6329286Y-2283714D01*
X6300714Y-2269429D01*
X6286428Y-2240857D01*
X6286428Y-2126571D01*
X6300714Y-2098000D01*
X6329286Y-2083714D01*
X6386428Y-2083714D01*
X6415000Y-2098000D01*
X6429286Y-2126571D01*
X6429286Y-2155143D01*
X6286428Y-2183714D01*
X6543571Y-2269429D02*
X6572143Y-2283714D01*
X6629286Y-2283714D01*
X6657857Y-2269429D01*
X6672143Y-2240857D01*
X6672143Y-2226571D01*
X6657857Y-2198000D01*
X6629286Y-2183714D01*
X6586428Y-2183714D01*
X6557857Y-2169429D01*
X6543571Y-2140857D01*
X6543571Y-2126571D01*
X6557857Y-2098000D01*
X6586428Y-2083714D01*
X6629286Y-2083714D01*
X6657857Y-2098000D01*
X6772143Y-2398000D02*
X6786428Y-2383714D01*
X6815000Y-2340857D01*
X6829286Y-2312286D01*
X6843571Y-2269429D01*
X6857857Y-2198000D01*
X6857857Y-2140857D01*
X6843571Y-2069428D01*
X6829286Y-2026571D01*
X6815000Y-1998000D01*
X6786428Y-1955143D01*
X6772143Y-1940857D01*
X-32500Y-2576500D02*
X0Y-2544000D01*
X-32500Y-2511500D01*
X-65000Y-2544000D01*
X-32500Y-2576500D01*
X343571Y-2379714D02*
X372143Y-2379714D01*
X400714Y-2394000D01*
X415000Y-2408286D01*
X429286Y-2436857D01*
X443571Y-2494000D01*
X443571Y-2565429D01*
X429286Y-2622571D01*
X415000Y-2651143D01*
X400714Y-2665429D01*
X372143Y-2679714D01*
X343571Y-2679714D01*
X315000Y-2665429D01*
X300714Y-2651143D01*
X286429Y-2622571D01*
X272143Y-2565429D01*
X272143Y-2494000D01*
X286429Y-2436857D01*
X300714Y-2408286D01*
X315000Y-2394000D01*
X343571Y-2379714D01*
X572143Y-2651143D02*
X586429Y-2665429D01*
X572143Y-2679714D01*
X557857Y-2665429D01*
X572143Y-2651143D01*
X572143Y-2679714D01*
X843571Y-2379714D02*
X786428Y-2379714D01*
X757857Y-2394000D01*
X743571Y-2408286D01*
X715000Y-2451143D01*
X700714Y-2508286D01*
X700714Y-2622571D01*
X715000Y-2651143D01*
X729286Y-2665429D01*
X757857Y-2679714D01*
X815000Y-2679714D01*
X843571Y-2665429D01*
X857857Y-2651143D01*
X872143Y-2622571D01*
X872143Y-2551143D01*
X857857Y-2522571D01*
X843571Y-2508286D01*
X815000Y-2494000D01*
X757857Y-2494000D01*
X729286Y-2508286D01*
X715000Y-2522571D01*
X700714Y-2551143D01*
X1143571Y-2379714D02*
X1000714Y-2379714D01*
X986428Y-2522571D01*
X1000714Y-2508286D01*
X1029286Y-2494000D01*
X1100714Y-2494000D01*
X1129286Y-2508286D01*
X1143571Y-2522571D01*
X1157857Y-2551143D01*
X1157857Y-2622571D01*
X1143571Y-2651143D01*
X1129286Y-2665429D01*
X1100714Y-2679714D01*
X1029286Y-2679714D01*
X1000714Y-2665429D01*
X986428Y-2651143D01*
X1286429Y-2679714D02*
X1286429Y-2479714D01*
X1286429Y-2508286D02*
X1300714Y-2494000D01*
X1329286Y-2479714D01*
X1372143Y-2479714D01*
X1400714Y-2494000D01*
X1415000Y-2522571D01*
X1415000Y-2679714D01*
X1415000Y-2522571D02*
X1429286Y-2494000D01*
X1457857Y-2479714D01*
X1500714Y-2479714D01*
X1529286Y-2494000D01*
X1543571Y-2522571D01*
X1543571Y-2679714D01*
X1686428Y-2679714D02*
X1686428Y-2479714D01*
X1686428Y-2508286D02*
X1700714Y-2494000D01*
X1729286Y-2479714D01*
X1772143Y-2479714D01*
X1800714Y-2494000D01*
X1815000Y-2522571D01*
X1815000Y-2679714D01*
X1815000Y-2522571D02*
X1829286Y-2494000D01*
X1857857Y-2479714D01*
X1900714Y-2479714D01*
X1929286Y-2494000D01*
X1943571Y-2522571D01*
X1943571Y-2679714D01*
X2529286Y-2365429D02*
X2272143Y-2751143D01*
X2915000Y-2379714D02*
X2943571Y-2379714D01*
X2972143Y-2394000D01*
X2986428Y-2408286D01*
X3000714Y-2436857D01*
X3015000Y-2494000D01*
X3015000Y-2565429D01*
X3000714Y-2622571D01*
X2986428Y-2651143D01*
X2972143Y-2665429D01*
X2943571Y-2679714D01*
X2915000Y-2679714D01*
X2886428Y-2665429D01*
X2872143Y-2651143D01*
X2857857Y-2622571D01*
X2843571Y-2565429D01*
X2843571Y-2494000D01*
X2857857Y-2436857D01*
X2872143Y-2408286D01*
X2886428Y-2394000D01*
X2915000Y-2379714D01*
X3143571Y-2651143D02*
X3157857Y-2665429D01*
X3143571Y-2679714D01*
X3129286Y-2665429D01*
X3143571Y-2651143D01*
X3143571Y-2679714D01*
X3343571Y-2379714D02*
X3372143Y-2379714D01*
X3400714Y-2394000D01*
X3415000Y-2408286D01*
X3429286Y-2436857D01*
X3443571Y-2494000D01*
X3443571Y-2565429D01*
X3429286Y-2622571D01*
X3415000Y-2651143D01*
X3400714Y-2665429D01*
X3372143Y-2679714D01*
X3343571Y-2679714D01*
X3315000Y-2665429D01*
X3300714Y-2651143D01*
X3286428Y-2622571D01*
X3272143Y-2565429D01*
X3272143Y-2494000D01*
X3286428Y-2436857D01*
X3300714Y-2408286D01*
X3315000Y-2394000D01*
X3343571Y-2379714D01*
X3557857Y-2408286D02*
X3572143Y-2394000D01*
X3600714Y-2379714D01*
X3672143Y-2379714D01*
X3700714Y-2394000D01*
X3715000Y-2408286D01*
X3729286Y-2436857D01*
X3729286Y-2465429D01*
X3715000Y-2508286D01*
X3543571Y-2679714D01*
X3729286Y-2679714D01*
X3986428Y-2379714D02*
X3929286Y-2379714D01*
X3900714Y-2394000D01*
X3886428Y-2408286D01*
X3857857Y-2451143D01*
X3843571Y-2508286D01*
X3843571Y-2622571D01*
X3857857Y-2651143D01*
X3872143Y-2665429D01*
X3900714Y-2679714D01*
X3957857Y-2679714D01*
X3986428Y-2665429D01*
X4000714Y-2651143D01*
X4015000Y-2622571D01*
X4015000Y-2551143D01*
X4000714Y-2522571D01*
X3986428Y-2508286D01*
X3957857Y-2494000D01*
X3900714Y-2494000D01*
X3872143Y-2508286D01*
X3857857Y-2522571D01*
X3843571Y-2551143D01*
X4129286Y-2379714D02*
X4129286Y-2436857D01*
X4243571Y-2379714D02*
X4243571Y-2436857D01*
X4686429Y-2794000D02*
X4672143Y-2779714D01*
X4643571Y-2736857D01*
X4629286Y-2708286D01*
X4615000Y-2665429D01*
X4600714Y-2594000D01*
X4600714Y-2536857D01*
X4615000Y-2465429D01*
X4629286Y-2422571D01*
X4643571Y-2394000D01*
X4672143Y-2351143D01*
X4686429Y-2336857D01*
X4857857Y-2379714D02*
X4886429Y-2379714D01*
X4915000Y-2394000D01*
X4929286Y-2408286D01*
X4943571Y-2436857D01*
X4957857Y-2494000D01*
X4957857Y-2565429D01*
X4943571Y-2622571D01*
X4929286Y-2651143D01*
X4915000Y-2665429D01*
X4886429Y-2679714D01*
X4857857Y-2679714D01*
X4829286Y-2665429D01*
X4815000Y-2651143D01*
X4800714Y-2622571D01*
X4786429Y-2565429D01*
X4786429Y-2494000D01*
X4800714Y-2436857D01*
X4815000Y-2408286D01*
X4829286Y-2394000D01*
X4857857Y-2379714D01*
X5315000Y-2679714D02*
X5315000Y-2379714D01*
X5443571Y-2679714D02*
X5443571Y-2522571D01*
X5429286Y-2494000D01*
X5400714Y-2479714D01*
X5357857Y-2479714D01*
X5329286Y-2494000D01*
X5315000Y-2508286D01*
X5629286Y-2679714D02*
X5600714Y-2665429D01*
X5586429Y-2651143D01*
X5572143Y-2622571D01*
X5572143Y-2536857D01*
X5586429Y-2508286D01*
X5600714Y-2494000D01*
X5629286Y-2479714D01*
X5672143Y-2479714D01*
X5700714Y-2494000D01*
X5715000Y-2508286D01*
X5729286Y-2536857D01*
X5729286Y-2622571D01*
X5715000Y-2651143D01*
X5700714Y-2665429D01*
X5672143Y-2679714D01*
X5629286Y-2679714D01*
X5900714Y-2679714D02*
X5872143Y-2665429D01*
X5857857Y-2636857D01*
X5857857Y-2379714D01*
X6129286Y-2665429D02*
X6100714Y-2679714D01*
X6043571Y-2679714D01*
X6015000Y-2665429D01*
X6000714Y-2636857D01*
X6000714Y-2522571D01*
X6015000Y-2494000D01*
X6043571Y-2479714D01*
X6100714Y-2479714D01*
X6129286Y-2494000D01*
X6143571Y-2522571D01*
X6143571Y-2551143D01*
X6000714Y-2579714D01*
X6257857Y-2665429D02*
X6286428Y-2679714D01*
X6343571Y-2679714D01*
X6372143Y-2665429D01*
X6386428Y-2636857D01*
X6386428Y-2622571D01*
X6372143Y-2594000D01*
X6343571Y-2579714D01*
X6300714Y-2579714D01*
X6272143Y-2565429D01*
X6257857Y-2536857D01*
X6257857Y-2522571D01*
X6272143Y-2494000D01*
X6300714Y-2479714D01*
X6343571Y-2479714D01*
X6372143Y-2494000D01*
X6743571Y-2565429D02*
X6972143Y-2565429D01*
X6857857Y-2679714D02*
X6857857Y-2451143D01*
X7329286Y-2408286D02*
X7343571Y-2394000D01*
X7372143Y-2379714D01*
X7443571Y-2379714D01*
X7472143Y-2394000D01*
X7486428Y-2408286D01*
X7500714Y-2436857D01*
X7500714Y-2465429D01*
X7486428Y-2508286D01*
X7315000Y-2679714D01*
X7500714Y-2679714D01*
X7843571Y-2665429D02*
X7872143Y-2679714D01*
X7929286Y-2679714D01*
X7957857Y-2665429D01*
X7972143Y-2636857D01*
X7972143Y-2622571D01*
X7957857Y-2594000D01*
X7929286Y-2579714D01*
X7886428Y-2579714D01*
X7857857Y-2565429D01*
X7843571Y-2536857D01*
X7843571Y-2522571D01*
X7857857Y-2494000D01*
X7886428Y-2479714D01*
X7929286Y-2479714D01*
X7957857Y-2494000D01*
X8143571Y-2679714D02*
X8115000Y-2665429D01*
X8100714Y-2636857D01*
X8100714Y-2379714D01*
X8300714Y-2679714D02*
X8272143Y-2665429D01*
X8257857Y-2651143D01*
X8243571Y-2622571D01*
X8243571Y-2536857D01*
X8257857Y-2508286D01*
X8272143Y-2494000D01*
X8300714Y-2479714D01*
X8343571Y-2479714D01*
X8372143Y-2494000D01*
X8386428Y-2508286D01*
X8400714Y-2536857D01*
X8400714Y-2622571D01*
X8386428Y-2651143D01*
X8372143Y-2665429D01*
X8343571Y-2679714D01*
X8300714Y-2679714D01*
X8486429Y-2479714D02*
X8600714Y-2479714D01*
X8529286Y-2379714D02*
X8529286Y-2636857D01*
X8543571Y-2665429D01*
X8572143Y-2679714D01*
X8600714Y-2679714D01*
X8686429Y-2665429D02*
X8715000Y-2679714D01*
X8772143Y-2679714D01*
X8800714Y-2665429D01*
X8815000Y-2636857D01*
X8815000Y-2622571D01*
X8800714Y-2594000D01*
X8772143Y-2579714D01*
X8729286Y-2579714D01*
X8700714Y-2565429D01*
X8686429Y-2536857D01*
X8686429Y-2522571D01*
X8700714Y-2494000D01*
X8729286Y-2479714D01*
X8772143Y-2479714D01*
X8800714Y-2494000D01*
X8915000Y-2794000D02*
X8929286Y-2779714D01*
X8957857Y-2736857D01*
X8972143Y-2708286D01*
X8986429Y-2665429D01*
X9000714Y-2594000D01*
X9000714Y-2536857D01*
X8986429Y-2465429D01*
X8972143Y-2422571D01*
X8957857Y-2394000D01*
X8929286Y-2351143D01*
X8915000Y-2336857D01*
X-70000Y-2905000D02*
X0Y-2975000D01*
X0Y-2905000D02*
X-70000Y-2975000D01*
X0Y-2940000D02*
G75*
G03X0Y-2940000I-35000J0D01*
G01*
X343571Y-2775714D02*
X372143Y-2775714D01*
X400714Y-2790000D01*
X415000Y-2804286D01*
X429286Y-2832857D01*
X443571Y-2890000D01*
X443571Y-2961428D01*
X429286Y-3018571D01*
X415000Y-3047143D01*
X400714Y-3061428D01*
X372143Y-3075714D01*
X343571Y-3075714D01*
X315000Y-3061428D01*
X300714Y-3047143D01*
X286429Y-3018571D01*
X272143Y-2961428D01*
X272143Y-2890000D01*
X286429Y-2832857D01*
X300714Y-2804286D01*
X315000Y-2790000D01*
X343571Y-2775714D01*
X572143Y-3047143D02*
X586429Y-3061428D01*
X572143Y-3075714D01*
X557857Y-3061428D01*
X572143Y-3047143D01*
X572143Y-3075714D01*
X686429Y-2775714D02*
X886428Y-2775714D01*
X757857Y-3075714D01*
X1057857Y-2775714D02*
X1086429Y-2775714D01*
X1115000Y-2790000D01*
X1129286Y-2804286D01*
X1143571Y-2832857D01*
X1157857Y-2890000D01*
X1157857Y-2961428D01*
X1143571Y-3018571D01*
X1129286Y-3047143D01*
X1115000Y-3061428D01*
X1086429Y-3075714D01*
X1057857Y-3075714D01*
X1029286Y-3061428D01*
X1015000Y-3047143D01*
X1000714Y-3018571D01*
X986428Y-2961428D01*
X986428Y-2890000D01*
X1000714Y-2832857D01*
X1015000Y-2804286D01*
X1029286Y-2790000D01*
X1057857Y-2775714D01*
X1286429Y-3075714D02*
X1286429Y-2875714D01*
X1286429Y-2904286D02*
X1300714Y-2890000D01*
X1329286Y-2875714D01*
X1372143Y-2875714D01*
X1400714Y-2890000D01*
X1415000Y-2918571D01*
X1415000Y-3075714D01*
X1415000Y-2918571D02*
X1429286Y-2890000D01*
X1457857Y-2875714D01*
X1500714Y-2875714D01*
X1529286Y-2890000D01*
X1543571Y-2918571D01*
X1543571Y-3075714D01*
X1686428Y-3075714D02*
X1686428Y-2875714D01*
X1686428Y-2904286D02*
X1700714Y-2890000D01*
X1729286Y-2875714D01*
X1772143Y-2875714D01*
X1800714Y-2890000D01*
X1815000Y-2918571D01*
X1815000Y-3075714D01*
X1815000Y-2918571D02*
X1829286Y-2890000D01*
X1857857Y-2875714D01*
X1900714Y-2875714D01*
X1929286Y-2890000D01*
X1943571Y-2918571D01*
X1943571Y-3075714D01*
X2529286Y-2761429D02*
X2272143Y-3147143D01*
X2915000Y-2775714D02*
X2943571Y-2775714D01*
X2972143Y-2790000D01*
X2986428Y-2804286D01*
X3000714Y-2832857D01*
X3015000Y-2890000D01*
X3015000Y-2961428D01*
X3000714Y-3018571D01*
X2986428Y-3047143D01*
X2972143Y-3061428D01*
X2943571Y-3075714D01*
X2915000Y-3075714D01*
X2886428Y-3061428D01*
X2872143Y-3047143D01*
X2857857Y-3018571D01*
X2843571Y-2961428D01*
X2843571Y-2890000D01*
X2857857Y-2832857D01*
X2872143Y-2804286D01*
X2886428Y-2790000D01*
X2915000Y-2775714D01*
X3143571Y-3047143D02*
X3157857Y-3061428D01*
X3143571Y-3075714D01*
X3129286Y-3061428D01*
X3143571Y-3047143D01*
X3143571Y-3075714D01*
X3343571Y-2775714D02*
X3372143Y-2775714D01*
X3400714Y-2790000D01*
X3415000Y-2804286D01*
X3429286Y-2832857D01*
X3443571Y-2890000D01*
X3443571Y-2961428D01*
X3429286Y-3018571D01*
X3415000Y-3047143D01*
X3400714Y-3061428D01*
X3372143Y-3075714D01*
X3343571Y-3075714D01*
X3315000Y-3061428D01*
X3300714Y-3047143D01*
X3286428Y-3018571D01*
X3272143Y-2961428D01*
X3272143Y-2890000D01*
X3286428Y-2832857D01*
X3300714Y-2804286D01*
X3315000Y-2790000D01*
X3343571Y-2775714D01*
X3557857Y-2804286D02*
X3572143Y-2790000D01*
X3600714Y-2775714D01*
X3672143Y-2775714D01*
X3700714Y-2790000D01*
X3715000Y-2804286D01*
X3729286Y-2832857D01*
X3729286Y-2861428D01*
X3715000Y-2904286D01*
X3543571Y-3075714D01*
X3729286Y-3075714D01*
X3900714Y-2904286D02*
X3872143Y-2890000D01*
X3857857Y-2875714D01*
X3843571Y-2847143D01*
X3843571Y-2832857D01*
X3857857Y-2804286D01*
X3872143Y-2790000D01*
X3900714Y-2775714D01*
X3957857Y-2775714D01*
X3986428Y-2790000D01*
X4000714Y-2804286D01*
X4015000Y-2832857D01*
X4015000Y-2847143D01*
X4000714Y-2875714D01*
X3986428Y-2890000D01*
X3957857Y-2904286D01*
X3900714Y-2904286D01*
X3872143Y-2918571D01*
X3857857Y-2932857D01*
X3843571Y-2961428D01*
X3843571Y-3018571D01*
X3857857Y-3047143D01*
X3872143Y-3061428D01*
X3900714Y-3075714D01*
X3957857Y-3075714D01*
X3986428Y-3061428D01*
X4000714Y-3047143D01*
X4015000Y-3018571D01*
X4015000Y-2961428D01*
X4000714Y-2932857D01*
X3986428Y-2918571D01*
X3957857Y-2904286D01*
X4129286Y-2775714D02*
X4129286Y-2832857D01*
X4243571Y-2775714D02*
X4243571Y-2832857D01*
X4686429Y-3190000D02*
X4672143Y-3175714D01*
X4643571Y-3132857D01*
X4629286Y-3104286D01*
X4615000Y-3061428D01*
X4600714Y-2990000D01*
X4600714Y-2932857D01*
X4615000Y-2861428D01*
X4629286Y-2818571D01*
X4643571Y-2790000D01*
X4672143Y-2747143D01*
X4686429Y-2732857D01*
X4857857Y-2775714D02*
X4886429Y-2775714D01*
X4915000Y-2790000D01*
X4929286Y-2804286D01*
X4943571Y-2832857D01*
X4957857Y-2890000D01*
X4957857Y-2961428D01*
X4943571Y-3018571D01*
X4929286Y-3047143D01*
X4915000Y-3061428D01*
X4886429Y-3075714D01*
X4857857Y-3075714D01*
X4829286Y-3061428D01*
X4815000Y-3047143D01*
X4800714Y-3018571D01*
X4786429Y-2961428D01*
X4786429Y-2890000D01*
X4800714Y-2832857D01*
X4815000Y-2804286D01*
X4829286Y-2790000D01*
X4857857Y-2775714D01*
X5315000Y-3075714D02*
X5315000Y-2775714D01*
X5443571Y-3075714D02*
X5443571Y-2918571D01*
X5429286Y-2890000D01*
X5400714Y-2875714D01*
X5357857Y-2875714D01*
X5329286Y-2890000D01*
X5315000Y-2904286D01*
X5629286Y-3075714D02*
X5600714Y-3061428D01*
X5586429Y-3047143D01*
X5572143Y-3018571D01*
X5572143Y-2932857D01*
X5586429Y-2904286D01*
X5600714Y-2890000D01*
X5629286Y-2875714D01*
X5672143Y-2875714D01*
X5700714Y-2890000D01*
X5715000Y-2904286D01*
X5729286Y-2932857D01*
X5729286Y-3018571D01*
X5715000Y-3047143D01*
X5700714Y-3061428D01*
X5672143Y-3075714D01*
X5629286Y-3075714D01*
X5900714Y-3075714D02*
X5872143Y-3061428D01*
X5857857Y-3032857D01*
X5857857Y-2775714D01*
X6129286Y-3061428D02*
X6100714Y-3075714D01*
X6043571Y-3075714D01*
X6015000Y-3061428D01*
X6000714Y-3032857D01*
X6000714Y-2918571D01*
X6015000Y-2890000D01*
X6043571Y-2875714D01*
X6100714Y-2875714D01*
X6129286Y-2890000D01*
X6143571Y-2918571D01*
X6143571Y-2947143D01*
X6000714Y-2975714D01*
X6257857Y-3061428D02*
X6286428Y-3075714D01*
X6343571Y-3075714D01*
X6372143Y-3061428D01*
X6386428Y-3032857D01*
X6386428Y-3018571D01*
X6372143Y-2990000D01*
X6343571Y-2975714D01*
X6300714Y-2975714D01*
X6272143Y-2961428D01*
X6257857Y-2932857D01*
X6257857Y-2918571D01*
X6272143Y-2890000D01*
X6300714Y-2875714D01*
X6343571Y-2875714D01*
X6372143Y-2890000D01*
X6743571Y-2961428D02*
X6972143Y-2961428D01*
X6857857Y-3075714D02*
X6857857Y-2847143D01*
X7329286Y-2804286D02*
X7343571Y-2790000D01*
X7372143Y-2775714D01*
X7443571Y-2775714D01*
X7472143Y-2790000D01*
X7486428Y-2804286D01*
X7500714Y-2832857D01*
X7500714Y-2861428D01*
X7486428Y-2904286D01*
X7315000Y-3075714D01*
X7500714Y-3075714D01*
X7843571Y-3061428D02*
X7872143Y-3075714D01*
X7929286Y-3075714D01*
X7957857Y-3061428D01*
X7972143Y-3032857D01*
X7972143Y-3018571D01*
X7957857Y-2990000D01*
X7929286Y-2975714D01*
X7886428Y-2975714D01*
X7857857Y-2961428D01*
X7843571Y-2932857D01*
X7843571Y-2918571D01*
X7857857Y-2890000D01*
X7886428Y-2875714D01*
X7929286Y-2875714D01*
X7957857Y-2890000D01*
X8143571Y-3075714D02*
X8115000Y-3061428D01*
X8100714Y-3032857D01*
X8100714Y-2775714D01*
X8300714Y-3075714D02*
X8272143Y-3061428D01*
X8257857Y-3047143D01*
X8243571Y-3018571D01*
X8243571Y-2932857D01*
X8257857Y-2904286D01*
X8272143Y-2890000D01*
X8300714Y-2875714D01*
X8343571Y-2875714D01*
X8372143Y-2890000D01*
X8386428Y-2904286D01*
X8400714Y-2932857D01*
X8400714Y-3018571D01*
X8386428Y-3047143D01*
X8372143Y-3061428D01*
X8343571Y-3075714D01*
X8300714Y-3075714D01*
X8486429Y-2875714D02*
X8600714Y-2875714D01*
X8529286Y-2775714D02*
X8529286Y-3032857D01*
X8543571Y-3061428D01*
X8572143Y-3075714D01*
X8600714Y-3075714D01*
X8686429Y-3061428D02*
X8715000Y-3075714D01*
X8772143Y-3075714D01*
X8800714Y-3061428D01*
X8815000Y-3032857D01*
X8815000Y-3018571D01*
X8800714Y-2990000D01*
X8772143Y-2975714D01*
X8729286Y-2975714D01*
X8700714Y-2961428D01*
X8686429Y-2932857D01*
X8686429Y-2918571D01*
X8700714Y-2890000D01*
X8729286Y-2875714D01*
X8772143Y-2875714D01*
X8800714Y-2890000D01*
X8915000Y-3190000D02*
X8929286Y-3175714D01*
X8957857Y-3132857D01*
X8972143Y-3104286D01*
X8986429Y-3061428D01*
X9000714Y-2990000D01*
X9000714Y-2932857D01*
X8986429Y-2861428D01*
X8972143Y-2818571D01*
X8957857Y-2790000D01*
X8929286Y-2747143D01*
X8915000Y-2732857D01*
X-100000Y-3286000D02*
X0Y-3386000D01*
X0Y-3286000D02*
X-100000Y-3386000D01*
X-50000Y-3286000D02*
X-50000Y-3386000D01*
X-100000Y-3336000D02*
X0Y-3336000D01*
X443571Y-3471714D02*
X272143Y-3471714D01*
X357857Y-3471714D02*
X357857Y-3171714D01*
X329286Y-3214571D01*
X300714Y-3243143D01*
X272143Y-3257428D01*
X572143Y-3443143D02*
X586429Y-3457428D01*
X572143Y-3471714D01*
X557857Y-3457428D01*
X572143Y-3443143D01*
X572143Y-3471714D01*
X772143Y-3171714D02*
X800714Y-3171714D01*
X829286Y-3186000D01*
X843571Y-3200286D01*
X857857Y-3228857D01*
X872143Y-3286000D01*
X872143Y-3357428D01*
X857857Y-3414571D01*
X843571Y-3443143D01*
X829286Y-3457428D01*
X800714Y-3471714D01*
X772143Y-3471714D01*
X743571Y-3457428D01*
X729286Y-3443143D01*
X715000Y-3414571D01*
X700714Y-3357428D01*
X700714Y-3286000D01*
X715000Y-3228857D01*
X729286Y-3200286D01*
X743571Y-3186000D01*
X772143Y-3171714D01*
X1057857Y-3171714D02*
X1086429Y-3171714D01*
X1115000Y-3186000D01*
X1129286Y-3200286D01*
X1143571Y-3228857D01*
X1157857Y-3286000D01*
X1157857Y-3357428D01*
X1143571Y-3414571D01*
X1129286Y-3443143D01*
X1115000Y-3457428D01*
X1086429Y-3471714D01*
X1057857Y-3471714D01*
X1029286Y-3457428D01*
X1015000Y-3443143D01*
X1000714Y-3414571D01*
X986428Y-3357428D01*
X986428Y-3286000D01*
X1000714Y-3228857D01*
X1015000Y-3200286D01*
X1029286Y-3186000D01*
X1057857Y-3171714D01*
X1286429Y-3471714D02*
X1286429Y-3271714D01*
X1286429Y-3300286D02*
X1300714Y-3286000D01*
X1329286Y-3271714D01*
X1372143Y-3271714D01*
X1400714Y-3286000D01*
X1415000Y-3314571D01*
X1415000Y-3471714D01*
X1415000Y-3314571D02*
X1429286Y-3286000D01*
X1457857Y-3271714D01*
X1500714Y-3271714D01*
X1529286Y-3286000D01*
X1543571Y-3314571D01*
X1543571Y-3471714D01*
X1686428Y-3471714D02*
X1686428Y-3271714D01*
X1686428Y-3300286D02*
X1700714Y-3286000D01*
X1729286Y-3271714D01*
X1772143Y-3271714D01*
X1800714Y-3286000D01*
X1815000Y-3314571D01*
X1815000Y-3471714D01*
X1815000Y-3314571D02*
X1829286Y-3286000D01*
X1857857Y-3271714D01*
X1900714Y-3271714D01*
X1929286Y-3286000D01*
X1943571Y-3314571D01*
X1943571Y-3471714D01*
X2529286Y-3157428D02*
X2272143Y-3543143D01*
X2915000Y-3171714D02*
X2943571Y-3171714D01*
X2972143Y-3186000D01*
X2986428Y-3200286D01*
X3000714Y-3228857D01*
X3015000Y-3286000D01*
X3015000Y-3357428D01*
X3000714Y-3414571D01*
X2986428Y-3443143D01*
X2972143Y-3457428D01*
X2943571Y-3471714D01*
X2915000Y-3471714D01*
X2886428Y-3457428D01*
X2872143Y-3443143D01*
X2857857Y-3414571D01*
X2843571Y-3357428D01*
X2843571Y-3286000D01*
X2857857Y-3228857D01*
X2872143Y-3200286D01*
X2886428Y-3186000D01*
X2915000Y-3171714D01*
X3143571Y-3443143D02*
X3157857Y-3457428D01*
X3143571Y-3471714D01*
X3129286Y-3457428D01*
X3143571Y-3443143D01*
X3143571Y-3471714D01*
X3343571Y-3171714D02*
X3372143Y-3171714D01*
X3400714Y-3186000D01*
X3415000Y-3200286D01*
X3429286Y-3228857D01*
X3443571Y-3286000D01*
X3443571Y-3357428D01*
X3429286Y-3414571D01*
X3415000Y-3443143D01*
X3400714Y-3457428D01*
X3372143Y-3471714D01*
X3343571Y-3471714D01*
X3315000Y-3457428D01*
X3300714Y-3443143D01*
X3286428Y-3414571D01*
X3272143Y-3357428D01*
X3272143Y-3286000D01*
X3286428Y-3228857D01*
X3300714Y-3200286D01*
X3315000Y-3186000D01*
X3343571Y-3171714D01*
X3543571Y-3171714D02*
X3729286Y-3171714D01*
X3629286Y-3286000D01*
X3672143Y-3286000D01*
X3700714Y-3300286D01*
X3715000Y-3314571D01*
X3729286Y-3343143D01*
X3729286Y-3414571D01*
X3715000Y-3443143D01*
X3700714Y-3457428D01*
X3672143Y-3471714D01*
X3586428Y-3471714D01*
X3557857Y-3457428D01*
X3543571Y-3443143D01*
X3872143Y-3471714D02*
X3929286Y-3471714D01*
X3957857Y-3457428D01*
X3972143Y-3443143D01*
X4000714Y-3400286D01*
X4015000Y-3343143D01*
X4015000Y-3228857D01*
X4000714Y-3200286D01*
X3986428Y-3186000D01*
X3957857Y-3171714D01*
X3900714Y-3171714D01*
X3872143Y-3186000D01*
X3857857Y-3200286D01*
X3843571Y-3228857D01*
X3843571Y-3300286D01*
X3857857Y-3328857D01*
X3872143Y-3343143D01*
X3900714Y-3357428D01*
X3957857Y-3357428D01*
X3986428Y-3343143D01*
X4000714Y-3328857D01*
X4015000Y-3300286D01*
X4129286Y-3171714D02*
X4129286Y-3228857D01*
X4243571Y-3171714D02*
X4243571Y-3228857D01*
X4686429Y-3586000D02*
X4672143Y-3571714D01*
X4643571Y-3528857D01*
X4629286Y-3500286D01*
X4615000Y-3457428D01*
X4600714Y-3386000D01*
X4600714Y-3328857D01*
X4615000Y-3257428D01*
X4629286Y-3214571D01*
X4643571Y-3186000D01*
X4672143Y-3143143D01*
X4686429Y-3128857D01*
X4786429Y-3200286D02*
X4800714Y-3186000D01*
X4829286Y-3171714D01*
X4900714Y-3171714D01*
X4929286Y-3186000D01*
X4943571Y-3200286D01*
X4957857Y-3228857D01*
X4957857Y-3257428D01*
X4943571Y-3300286D01*
X4772143Y-3471714D01*
X4957857Y-3471714D01*
X5243571Y-3471714D02*
X5072143Y-3471714D01*
X5157857Y-3471714D02*
X5157857Y-3171714D01*
X5129286Y-3214571D01*
X5100714Y-3243143D01*
X5072143Y-3257428D01*
X5600714Y-3471714D02*
X5600714Y-3171714D01*
X5729286Y-3471714D02*
X5729286Y-3314571D01*
X5715000Y-3286000D01*
X5686428Y-3271714D01*
X5643571Y-3271714D01*
X5615000Y-3286000D01*
X5600714Y-3300286D01*
X5915000Y-3471714D02*
X5886428Y-3457428D01*
X5872143Y-3443143D01*
X5857857Y-3414571D01*
X5857857Y-3328857D01*
X5872143Y-3300286D01*
X5886428Y-3286000D01*
X5915000Y-3271714D01*
X5957857Y-3271714D01*
X5986428Y-3286000D01*
X6000714Y-3300286D01*
X6015000Y-3328857D01*
X6015000Y-3414571D01*
X6000714Y-3443143D01*
X5986428Y-3457428D01*
X5957857Y-3471714D01*
X5915000Y-3471714D01*
X6186428Y-3471714D02*
X6157857Y-3457428D01*
X6143571Y-3428857D01*
X6143571Y-3171714D01*
X6415000Y-3457428D02*
X6386428Y-3471714D01*
X6329286Y-3471714D01*
X6300714Y-3457428D01*
X6286428Y-3428857D01*
X6286428Y-3314571D01*
X6300714Y-3286000D01*
X6329286Y-3271714D01*
X6386428Y-3271714D01*
X6415000Y-3286000D01*
X6429286Y-3314571D01*
X6429286Y-3343143D01*
X6286428Y-3371714D01*
X6543571Y-3457428D02*
X6572143Y-3471714D01*
X6629286Y-3471714D01*
X6657857Y-3457428D01*
X6672143Y-3428857D01*
X6672143Y-3414571D01*
X6657857Y-3386000D01*
X6629286Y-3371714D01*
X6586428Y-3371714D01*
X6557857Y-3357428D01*
X6543571Y-3328857D01*
X6543571Y-3314571D01*
X6557857Y-3286000D01*
X6586428Y-3271714D01*
X6629286Y-3271714D01*
X6657857Y-3286000D01*
X6772143Y-3586000D02*
X6786428Y-3571714D01*
X6815000Y-3528857D01*
X6829286Y-3500286D01*
X6843571Y-3457428D01*
X6857857Y-3386000D01*
X6857857Y-3328857D01*
X6843571Y-3257428D01*
X6829286Y-3214571D01*
X6815000Y-3186000D01*
X6786428Y-3143143D01*
X6772143Y-3128857D01*
X-300000Y-3582000D02*
X0Y-3882000D01*
X0Y-3582000D02*
X-300000Y-3882000D01*
X-43933Y-3838067D02*
X-43933Y-3625933D01*
X-256067Y-3625933D01*
X-256067Y-3838067D01*
X-43933Y-3838067D01*
X257857Y-3567714D02*
X443571Y-3567714D01*
X343571Y-3682000D01*
X386428Y-3682000D01*
X415000Y-3696286D01*
X429286Y-3710571D01*
X443571Y-3739143D01*
X443571Y-3810571D01*
X429286Y-3839143D01*
X415000Y-3853428D01*
X386428Y-3867714D01*
X300714Y-3867714D01*
X272143Y-3853428D01*
X257857Y-3839143D01*
X572143Y-3839143D02*
X586429Y-3853428D01*
X572143Y-3867714D01*
X557857Y-3853428D01*
X572143Y-3839143D01*
X572143Y-3867714D01*
X772143Y-3567714D02*
X800714Y-3567714D01*
X829286Y-3582000D01*
X843571Y-3596286D01*
X857857Y-3624857D01*
X872143Y-3682000D01*
X872143Y-3753428D01*
X857857Y-3810571D01*
X843571Y-3839143D01*
X829286Y-3853428D01*
X800714Y-3867714D01*
X772143Y-3867714D01*
X743571Y-3853428D01*
X729286Y-3839143D01*
X715000Y-3810571D01*
X700714Y-3753428D01*
X700714Y-3682000D01*
X715000Y-3624857D01*
X729286Y-3596286D01*
X743571Y-3582000D01*
X772143Y-3567714D01*
X1057857Y-3567714D02*
X1086429Y-3567714D01*
X1115000Y-3582000D01*
X1129286Y-3596286D01*
X1143571Y-3624857D01*
X1157857Y-3682000D01*
X1157857Y-3753428D01*
X1143571Y-3810571D01*
X1129286Y-3839143D01*
X1115000Y-3853428D01*
X1086429Y-3867714D01*
X1057857Y-3867714D01*
X1029286Y-3853428D01*
X1015000Y-3839143D01*
X1000714Y-3810571D01*
X986428Y-3753428D01*
X986428Y-3682000D01*
X1000714Y-3624857D01*
X1015000Y-3596286D01*
X1029286Y-3582000D01*
X1057857Y-3567714D01*
X1286429Y-3867714D02*
X1286429Y-3667714D01*
X1286429Y-3696286D02*
X1300714Y-3682000D01*
X1329286Y-3667714D01*
X1372143Y-3667714D01*
X1400714Y-3682000D01*
X1415000Y-3710571D01*
X1415000Y-3867714D01*
X1415000Y-3710571D02*
X1429286Y-3682000D01*
X1457857Y-3667714D01*
X1500714Y-3667714D01*
X1529286Y-3682000D01*
X1543571Y-3710571D01*
X1543571Y-3867714D01*
X1686428Y-3867714D02*
X1686428Y-3667714D01*
X1686428Y-3696286D02*
X1700714Y-3682000D01*
X1729286Y-3667714D01*
X1772143Y-3667714D01*
X1800714Y-3682000D01*
X1815000Y-3710571D01*
X1815000Y-3867714D01*
X1815000Y-3710571D02*
X1829286Y-3682000D01*
X1857857Y-3667714D01*
X1900714Y-3667714D01*
X1929286Y-3682000D01*
X1943571Y-3710571D01*
X1943571Y-3867714D01*
X2529286Y-3553428D02*
X2272143Y-3939143D01*
X2915000Y-3567714D02*
X2943571Y-3567714D01*
X2972143Y-3582000D01*
X2986428Y-3596286D01*
X3000714Y-3624857D01*
X3015000Y-3682000D01*
X3015000Y-3753428D01*
X3000714Y-3810571D01*
X2986428Y-3839143D01*
X2972143Y-3853428D01*
X2943571Y-3867714D01*
X2915000Y-3867714D01*
X2886428Y-3853428D01*
X2872143Y-3839143D01*
X2857857Y-3810571D01*
X2843571Y-3753428D01*
X2843571Y-3682000D01*
X2857857Y-3624857D01*
X2872143Y-3596286D01*
X2886428Y-3582000D01*
X2915000Y-3567714D01*
X3143571Y-3839143D02*
X3157857Y-3853428D01*
X3143571Y-3867714D01*
X3129286Y-3853428D01*
X3143571Y-3839143D01*
X3143571Y-3867714D01*
X3443571Y-3867714D02*
X3272143Y-3867714D01*
X3357857Y-3867714D02*
X3357857Y-3567714D01*
X3329286Y-3610571D01*
X3300714Y-3639143D01*
X3272143Y-3653428D01*
X3729286Y-3867714D02*
X3557857Y-3867714D01*
X3643571Y-3867714D02*
X3643571Y-3567714D01*
X3615000Y-3610571D01*
X3586428Y-3639143D01*
X3557857Y-3653428D01*
X3900714Y-3696286D02*
X3872143Y-3682000D01*
X3857857Y-3667714D01*
X3843571Y-3639143D01*
X3843571Y-3624857D01*
X3857857Y-3596286D01*
X3872143Y-3582000D01*
X3900714Y-3567714D01*
X3957857Y-3567714D01*
X3986428Y-3582000D01*
X4000714Y-3596286D01*
X4015000Y-3624857D01*
X4015000Y-3639143D01*
X4000714Y-3667714D01*
X3986428Y-3682000D01*
X3957857Y-3696286D01*
X3900714Y-3696286D01*
X3872143Y-3710571D01*
X3857857Y-3724857D01*
X3843571Y-3753428D01*
X3843571Y-3810571D01*
X3857857Y-3839143D01*
X3872143Y-3853428D01*
X3900714Y-3867714D01*
X3957857Y-3867714D01*
X3986428Y-3853428D01*
X4000714Y-3839143D01*
X4015000Y-3810571D01*
X4015000Y-3753428D01*
X4000714Y-3724857D01*
X3986428Y-3710571D01*
X3957857Y-3696286D01*
X4129286Y-3567714D02*
X4129286Y-3624857D01*
X4243571Y-3567714D02*
X4243571Y-3624857D01*
X4686429Y-3982000D02*
X4672143Y-3967714D01*
X4643571Y-3924857D01*
X4629286Y-3896286D01*
X4615000Y-3853428D01*
X4600714Y-3782000D01*
X4600714Y-3724857D01*
X4615000Y-3653428D01*
X4629286Y-3610571D01*
X4643571Y-3582000D01*
X4672143Y-3539143D01*
X4686429Y-3524857D01*
X4786429Y-3596286D02*
X4800714Y-3582000D01*
X4829286Y-3567714D01*
X4900714Y-3567714D01*
X4929286Y-3582000D01*
X4943571Y-3596286D01*
X4957857Y-3624857D01*
X4957857Y-3653428D01*
X4943571Y-3696286D01*
X4772143Y-3867714D01*
X4957857Y-3867714D01*
X5315000Y-3867714D02*
X5315000Y-3567714D01*
X5443571Y-3867714D02*
X5443571Y-3710571D01*
X5429286Y-3682000D01*
X5400714Y-3667714D01*
X5357857Y-3667714D01*
X5329286Y-3682000D01*
X5315000Y-3696286D01*
X5629286Y-3867714D02*
X5600714Y-3853428D01*
X5586429Y-3839143D01*
X5572143Y-3810571D01*
X5572143Y-3724857D01*
X5586429Y-3696286D01*
X5600714Y-3682000D01*
X5629286Y-3667714D01*
X5672143Y-3667714D01*
X5700714Y-3682000D01*
X5715000Y-3696286D01*
X5729286Y-3724857D01*
X5729286Y-3810571D01*
X5715000Y-3839143D01*
X5700714Y-3853428D01*
X5672143Y-3867714D01*
X5629286Y-3867714D01*
X5900714Y-3867714D02*
X5872143Y-3853428D01*
X5857857Y-3824857D01*
X5857857Y-3567714D01*
X6129286Y-3853428D02*
X6100714Y-3867714D01*
X6043571Y-3867714D01*
X6015000Y-3853428D01*
X6000714Y-3824857D01*
X6000714Y-3710571D01*
X6015000Y-3682000D01*
X6043571Y-3667714D01*
X6100714Y-3667714D01*
X6129286Y-3682000D01*
X6143571Y-3710571D01*
X6143571Y-3739143D01*
X6000714Y-3767714D01*
X6257857Y-3853428D02*
X6286428Y-3867714D01*
X6343571Y-3867714D01*
X6372143Y-3853428D01*
X6386428Y-3824857D01*
X6386428Y-3810571D01*
X6372143Y-3782000D01*
X6343571Y-3767714D01*
X6300714Y-3767714D01*
X6272143Y-3753428D01*
X6257857Y-3724857D01*
X6257857Y-3710571D01*
X6272143Y-3682000D01*
X6300714Y-3667714D01*
X6343571Y-3667714D01*
X6372143Y-3682000D01*
X6486428Y-3982000D02*
X6500714Y-3967714D01*
X6529286Y-3924857D01*
X6543571Y-3896286D01*
X6557857Y-3853428D01*
X6572143Y-3782000D01*
X6572143Y-3724857D01*
X6557857Y-3653428D01*
X6543571Y-3610571D01*
X6529286Y-3582000D01*
X6500714Y-3539143D01*
X6486428Y-3524857D01*
M02*
