M48
;DRILL file {KiCad (5.0.0)} date 01/02/19 23:36:57
;FORMAT={-:-/ absolute / metric / decimal}
FMAT,2
METRIC,TZ
T1C0.305
T2C0.400
T3C0.500
T4C0.610
T5C0.650
T6C0.700
T7C1.000
T8C3.000
%
G90
G05
M71
T1
X121.293Y-83.393
X121.293Y-84.807
X122.Y-84.1
X122.707Y-83.393
X122.707Y-84.807
T2
X103.8Y-79.7
X106.5Y-79.2
X109.9Y-84.1
X112.225Y-88.7
X112.975Y-86.425
X113.1Y-73.3
X113.525Y-85.525
X114.47Y-82.93
X116.075Y-81.8
X117.575Y-82.575
X118.325Y-79.8
X119.1Y-86.2
X119.225Y-80.575
X121.2Y-76.7
X121.475Y-79.875
X125.7Y-82.6
X125.8Y-84.2
X126.1Y-77.9
X127.4Y-76.3
X129.2Y-75.5
X129.6Y-81.4
X131.497Y-82.297
X132.275Y-82.925
X140.7Y-79.8
X142.475Y-82.7
T3
X121.3Y-69.1
X123.2Y-69.1
X123.156Y-88.556
X124.5Y-89.9
T4
X110.96Y-90.365
X110.96Y-91.635
X112.23Y-90.365
X112.23Y-91.635
X113.5Y-90.365
X113.5Y-91.635
X114.77Y-90.365
X114.77Y-91.635
X116.04Y-90.365
X116.04Y-91.635
T7
X105.98Y-68.9
X108.52Y-68.9
X111.06Y-68.9
X113.6Y-68.9
X128.2Y-91.
X130.74Y-91.
X133.28Y-91.
X135.82Y-91.
X138.36Y-91.
X140.9Y-91.
X143.44Y-91.
X145.98Y-91.
X146.2Y-71.7
X146.2Y-74.24
X146.2Y-76.78
X146.2Y-79.32
X146.2Y-81.86
X146.2Y-84.4
X146.2Y-86.94
X138.06Y-71.8
X140.6Y-71.8
T8
X105.85Y-72.625
X141.975Y-86.95
T5
X101.48Y-88.18G85X101.48Y-87.78
G05
X106.32Y-88.18G85X106.32Y-87.78
G05
T6
X101.17Y-91.23G85X101.17Y-90.73
G05
X106.63Y-91.23G85X106.63Y-90.73
G05
T0
M30
