%TF.GenerationSoftware,KiCad,Pcbnew,(5.0.0)*%
%TF.CreationDate,2019-01-02T23:42:08+00:00*%
%TF.ProjectId,beetle_dsn2_routed_pcb,626565746C655F64736E325F726F7574,rev?*%
%TF.SameCoordinates,Original*%
%TF.FileFunction,Plated,1,2,PTH,Mixed*%
%TF.FilePolarity,Positive*%
%FSLAX46Y46*%
G04 Gerber Fmt 4.6, Leading zero omitted, Abs format (unit mm)*
G04 Created by KiCad (PCBNEW (5.0.0)) date 01/02/19 23:42:09*
%MOMM*%
%LPD*%
G01*
G04 APERTURE LIST*
%TA.AperFunction,ComponentDrill*%
%ADD10C,0.304800*%
%TD*%
%TA.AperFunction,ViaDrill*%
%ADD11C,0.400000*%
%TD*%
%TA.AperFunction,ComponentDrill*%
%ADD12C,0.500000*%
%TD*%
%TA.AperFunction,ComponentDrill*%
%ADD13C,0.609600*%
%TD*%
%TA.AperFunction,Slot*%
%ADD14C,0.650000*%
%TD*%
%TA.AperFunction,Slot*%
%ADD15C,0.700000*%
%TD*%
%TA.AperFunction,ComponentDrill*%
%ADD16C,1.000000*%
%TD*%
%TA.AperFunction,ViaDrill*%
%ADD17C,3.000000*%
%TD*%
G04 APERTURE END LIST*
D10*
%TO.C,U1*%
X121292893Y-83392893D03*
X121292893Y-84807107D03*
X122000000Y-84100000D03*
X122707107Y-83392893D03*
X122707107Y-84807107D03*
%TD*%
D11*
X103800000Y-79700000D03*
X106500000Y-79200000D03*
X109900000Y-84100000D03*
X112225000Y-88700000D03*
X112975000Y-86425000D03*
X113100000Y-73300000D03*
X113525000Y-85525000D03*
X114470133Y-82929867D03*
X116075000Y-81800000D03*
X117575000Y-82575000D03*
X118325000Y-79800000D03*
X119100000Y-86200000D03*
X119225000Y-80575000D03*
X121200000Y-76700000D03*
X121475000Y-79875000D03*
X125700000Y-82600000D03*
X125800000Y-84200000D03*
X126100000Y-77900000D03*
X127400000Y-76300000D03*
X129200000Y-75500000D03*
X129600000Y-81400000D03*
X131496578Y-82297240D03*
X132275000Y-82925000D03*
X140700000Y-79800000D03*
X142475000Y-82699999D03*
D12*
%TO.C,Y2*%
X121300000Y-69100000D03*
X123200000Y-69100000D03*
%TO.C,Y1*%
X123156497Y-88556497D03*
X124500000Y-89900000D03*
D13*
%TO.C,JP3*%
X110960000Y-90365000D03*
X110960000Y-91635000D03*
X112230000Y-90365000D03*
X112230000Y-91635000D03*
X113500000Y-90365000D03*
X113500000Y-91635000D03*
X114770000Y-90365000D03*
X114770000Y-91635000D03*
X116040000Y-90365000D03*
X116040000Y-91635000D03*
D14*
%TO.C,J6*%
X101480000Y-87780000D02*
X101480000Y-88180000D01*
X106320000Y-87780000D02*
X106320000Y-88180000D01*
D15*
X101170000Y-90730000D02*
X101170000Y-91230000D01*
X106630000Y-90730000D02*
X106630000Y-91230000D01*
D16*
%TO.C,J3*%
X105980000Y-68900000D03*
X108520000Y-68900000D03*
X111060000Y-68900000D03*
X113600000Y-68900000D03*
%TO.C,J5*%
X128200000Y-91000000D03*
X130740000Y-91000000D03*
X133280000Y-91000000D03*
X135820000Y-91000000D03*
X138360000Y-91000000D03*
X140900000Y-91000000D03*
X143440000Y-91000000D03*
X145980000Y-91000000D03*
%TO.C,J1*%
X146200000Y-71700000D03*
X146200000Y-74240000D03*
X146200000Y-76780000D03*
X146200000Y-79320000D03*
X146200000Y-81860000D03*
X146200000Y-84400000D03*
X146200000Y-86940000D03*
%TO.C,J4*%
X138060000Y-71800000D03*
X140600000Y-71800000D03*
%TD*%
D17*
X105850000Y-72625000D03*
X141975000Y-86950000D03*
M02*
